<svg xmlns="http://www.w3.org/2000/svg" xmlns:xlink="http://www.w3.org/1999/xlink" width="176" height="68" viewBox="0 0 176 68">
    <defs>
        <linearGradient id="a" x1="50%" x2="0%" y1="70.772%" y2="100%">
            <stop offset="0%" stop-color="#3ECF8E"/>
            <stop offset="100%" stop-color="#9EE7C6"/>
        </linearGradient>
        <path id="b" d="M349.562 317.647a4.037 4.037 0 1 1 0-8.074 4.037 4.037 0 0 1 0 8.074zm0 11.906a4.037 4.037 0 1 1 0-8.074 4.037 4.037 0 0 1 0 8.074zm0 11.9a4.037 4.037 0 1 1 0-8.075 4.037 4.037 0 0 1 0 8.074zm-11.906-154.737a4.037 4.037 0 1 1 0-8.074 4.037 4.037 0 0 1 0 8.074zm4.038 7.895c0 2.211-1.807 4.043-4.038 4.043-2.23 0-4.037-1.832-4.037-4.043a4.037 4.037 0 1 1 8.075 0zm-4.038 51.621a4.037 4.037 0 1 1 0-8.074 4.037 4.037 0 0 1 0 8.074zm0 11.9a4.037 4.037 0 1 1 0-8.075 4.037 4.037 0 0 1 0 8.074zm0 11.905a4.037 4.037 0 1 1 0-8.074 4.037 4.037 0 0 1 0 8.074zm4.038 7.869c0 2.211-1.807 4.043-4.038 4.043-2.23 0-4.037-1.832-4.037-4.043a4.037 4.037 0 1 1 8.075 0zm-4.038 15.936a4.037 4.037 0 1 1 0-8.074 4.037 4.037 0 0 1 0 8.074zm4.038 7.869c0 2.211-1.807 4.018-4.038 4.018-2.23 0-4.037-1.807-4.037-4.018a4.02 4.02 0 0 1 4.037-4.044 4.02 4.02 0 0 1 4.038 4.044zm-4.038 15.936a4.037 4.037 0 1 1 0-8.074 4.037 4.037 0 0 1 0 8.074zm0 11.906a4.037 4.037 0 1 1 0-8.074 4.037 4.037 0 0 1 0 8.074zm0 11.9a4.037 4.037 0 1 1 0-8.075 4.037 4.037 0 0 1 0 8.074zm4.038 7.868c0 2.211-1.807 4.018-4.038 4.018-2.23 0-4.037-1.807-4.037-4.018 0-2.237 1.807-4.07 4.037-4.07 2.231 0 4.038 1.833 4.038 4.07zm-4.038 15.917a4.037 4.037 0 1 1 0-8.074 4.037 4.037 0 0 1 0 8.074zm0 11.9a4.037 4.037 0 1 1 0-8.075 4.037 4.037 0 0 1 0 8.074zm0 11.905a4.037 4.037 0 1 1 0-8.074 4.037 4.037 0 0 1 0 8.074zm-11.899-202.327a4.037 4.037 0 1 1 0-8.074 4.037 4.037 0 0 1 0 8.074zm4.044 7.895c0 2.211-1.807 4.043-4.037 4.043a4.055 4.055 0 0 1-4.044-4.043 4.041 4.041 0 0 1 8.08 0zm0 11.873a4.037 4.037 0 0 1-4.037 4.044 4.039 4.039 0 0 1-4.044-4.044c0-2.211 1.806-4.018 4.044-4.018 2.224 0 4.037 1.807 4.037 4.018zm0 11.906a4.037 4.037 0 0 1-4.037 4.044 4.039 4.039 0 0 1-4.044-4.044c0-2.211 1.806-4.018 4.044-4.018 2.224 0 4.037 1.807 4.037 4.018zm0 11.9c0 2.21-1.807 4.043-4.037 4.043a4.055 4.055 0 0 1-4.044-4.044c0-2.211 1.806-4.018 4.044-4.018 2.224 0 4.037 1.813 4.037 4.018zm-4.044 15.942a4.037 4.037 0 1 1 0-8.074 4.037 4.037 0 0 1 0 8.074zm0 11.9a4.037 4.037 0 1 1 0-8.075 4.037 4.037 0 0 1 0 8.074zm0 11.905a4.037 4.037 0 1 1 0-8.074 4.037 4.037 0 0 1 0 8.074zm4.044 7.869c0 2.211-1.807 4.043-4.037 4.043a4.055 4.055 0 0 1-4.044-4.043 4.041 4.041 0 0 1 8.08 0zm-4.044 15.936a4.037 4.037 0 1 1 0-8.074 4.037 4.037 0 0 1 0 8.074zm4.044 7.869c0 2.211-1.807 4.018-4.037 4.018-2.238 0-4.044-1.807-4.044-4.018a4.022 4.022 0 0 1 4.044-4.044 4.025 4.025 0 0 1 4.037 4.044zm-4.044 15.936a4.037 4.037 0 1 1 0-8.074 4.037 4.037 0 0 1 0 8.074zm0 11.906a4.037 4.037 0 1 1 0-8.074 4.037 4.037 0 0 1 0 8.074zm0 11.9a4.037 4.037 0 1 1 0-8.075 4.037 4.037 0 0 1 0 8.074zm4.044 7.868c0 2.211-1.807 4.018-4.037 4.018-2.238 0-4.044-1.807-4.044-4.018 0-2.237 1.806-4.07 4.044-4.07 2.224 0 4.037 1.833 4.037 4.07zm-4.044 15.917a4.037 4.037 0 1 1 0-8.074 4.037 4.037 0 0 1 0 8.074zm0 11.9a4.037 4.037 0 1 1 0-8.075 4.037 4.037 0 0 1 0 8.074zm0 11.905a4.037 4.037 0 1 1 0-8.074 4.037 4.037 0 0 1 0 8.074zm0 11.9a4.037 4.037 0 1 1 0-8.075 4.037 4.037 0 0 1 0 8.074zm0 23.804a4.037 4.037 0 1 1 0-8.074 4.037 4.037 0 0 1 0 8.074zm-11.9-238.03a4.037 4.037 0 1 1 0-8.075 4.037 4.037 0 0 1 0 8.074zm4.038 7.894c0 2.211-1.806 4.043-4.037 4.043-2.23 0-4.037-1.832-4.037-4.043a4.037 4.037 0 1 1 8.074 0zm0 11.873a4.037 4.037 0 1 1-8.074 0c0-2.211 1.806-4.018 4.037-4.018 2.23 0 4.037 1.807 4.037 4.018zm0 11.906a4.037 4.037 0 1 1-8.074 0c0-2.211 1.806-4.018 4.037-4.018 2.23 0 4.037 1.807 4.037 4.018zm0 11.9c0 2.21-1.806 4.043-4.037 4.043-2.23 0-4.037-1.832-4.037-4.044 0-2.211 1.806-4.018 4.037-4.018 2.23 0 4.037 1.813 4.037 4.018zm-4.037 15.942a4.037 4.037 0 1 1 0-8.074 4.037 4.037 0 0 1 0 8.074zm0 11.9a4.037 4.037 0 1 1 0-8.075 4.037 4.037 0 0 1 0 8.074zm0 11.905a4.037 4.037 0 1 1 0-8.074 4.037 4.037 0 0 1 0 8.074zm4.037 7.869c0 2.211-1.806 4.043-4.037 4.043-2.23 0-4.037-1.832-4.037-4.043a4.037 4.037 0 1 1 8.074 0zm-4.037 15.936a4.037 4.037 0 1 1 0-8.074 4.037 4.037 0 0 1 0 8.074zm4.037 7.869c0 2.211-1.806 4.018-4.037 4.018-2.23 0-4.037-1.807-4.037-4.018a4.02 4.02 0 0 1 4.037-4.044 4.02 4.02 0 0 1 4.037 4.044zm-4.037 15.936a4.037 4.037 0 1 1 0-8.074 4.037 4.037 0 0 1 0 8.074zm0 11.906a4.037 4.037 0 1 1 0-8.074 4.037 4.037 0 0 1 0 8.074zm0 11.9a4.037 4.037 0 1 1 0-8.075 4.037 4.037 0 0 1 0 8.074zm4.037 7.868c0 2.211-1.806 4.018-4.037 4.018-2.23 0-4.037-1.807-4.037-4.018 0-2.237 1.806-4.07 4.037-4.07 2.23 0 4.037 1.833 4.037 4.07zm-4.037 15.917a4.037 4.037 0 1 1 0-8.074 4.037 4.037 0 0 1 0 8.074zm0 11.9a4.037 4.037 0 1 1 0-8.075 4.037 4.037 0 0 1 0 8.074zm0 11.905a4.037 4.037 0 1 1 0-8.074 4.037 4.037 0 0 1 0 8.074zm0 11.9a4.037 4.037 0 1 1 0-8.075 4.037 4.037 0 0 1 0 8.074zm0 11.905a4.037 4.037 0 1 1 0-8.074 4.037 4.037 0 0 1 0 8.074zm0 11.9a4.037 4.037 0 1 1 0-8.075 4.037 4.037 0 0 1 0 8.074zm-11.9-249.912a4.037 4.037 0 1 1 0-8.074 4.037 4.037 0 0 1 0 8.074zm0 11.88a4.037 4.037 0 1 1 0-8.074 4.037 4.037 0 0 1 0 8.074zm4.038 7.895a4.055 4.055 0 0 1-4.044 4.043c-2.23 0-4.037-1.832-4.037-4.043a4.037 4.037 0 0 1 4.037-4.044 4.039 4.039 0 0 1 4.044 4.044zm0 11.873a4.039 4.039 0 0 1-4.044 4.044 4.037 4.037 0 0 1-4.037-4.044c0-2.211 1.806-4.018 4.037-4.018 2.237 0 4.044 1.807 4.044 4.018zm0 11.906a4.039 4.039 0 0 1-4.044 4.044 4.037 4.037 0 0 1-4.037-4.044c0-2.211 1.806-4.018 4.037-4.018 2.237 0 4.044 1.807 4.044 4.018zm0 11.9a4.055 4.055 0 0 1-4.044 4.043c-2.23 0-4.037-1.832-4.037-4.044 0-2.211 1.806-4.018 4.037-4.018 2.237 0 4.044 1.813 4.044 4.018zm-4.037 15.942a4.037 4.037 0 1 1 0-8.074 4.037 4.037 0 0 1 0 8.074zm0 11.9a4.037 4.037 0 1 1 0-8.075 4.037 4.037 0 0 1 0 8.074zm0 11.905a4.037 4.037 0 1 1 0-8.074 4.037 4.037 0 0 1 0 8.074zm4.037 7.869a4.055 4.055 0 0 1-4.044 4.043c-2.23 0-4.037-1.832-4.037-4.043a4.037 4.037 0 0 1 4.037-4.044 4.039 4.039 0 0 1 4.044 4.044zm-4.037 15.936a4.037 4.037 0 1 1 0-8.074 4.037 4.037 0 0 1 0 8.074zm4.037 7.869c0 2.211-1.807 4.018-4.044 4.018-2.23 0-4.037-1.807-4.037-4.018a4.02 4.02 0 0 1 4.037-4.044 4.022 4.022 0 0 1 4.044 4.044zm-4.037 15.936a4.037 4.037 0 1 1 0-8.074 4.037 4.037 0 0 1 0 8.074zm0 11.906a4.037 4.037 0 1 1 0-8.074 4.037 4.037 0 0 1 0 8.074zm0 11.9a4.037 4.037 0 1 1 0-8.075 4.037 4.037 0 0 1 0 8.074zm4.037 7.868c0 2.211-1.807 4.018-4.044 4.018-2.23 0-4.037-1.807-4.037-4.018 0-2.237 1.806-4.07 4.037-4.07 2.237 0 4.044 1.833 4.044 4.07zm-4.037 15.917a4.037 4.037 0 1 1 0-8.074 4.037 4.037 0 0 1 0 8.074zm0 11.9a4.037 4.037 0 1 1 0-8.075 4.037 4.037 0 0 1 0 8.074zm0 11.905a4.037 4.037 0 1 1 0-8.074 4.037 4.037 0 0 1 0 8.074zm0 11.9a4.037 4.037 0 1 1 0-8.075 4.037 4.037 0 0 1 0 8.074zm0 11.905a4.037 4.037 0 1 1 0-8.074 4.037 4.037 0 0 1 0 8.074zm0 11.9a4.037 4.037 0 1 1 0-8.075 4.037 4.037 0 0 1 0 8.074zm-11.9-249.912a4.037 4.037 0 1 1 0-8.074 4.037 4.037 0 0 1 0 8.074zm0 11.88a4.037 4.037 0 1 1 0-8.074 4.037 4.037 0 0 1 0 8.074zm4.037 7.895c0 2.211-1.806 4.043-4.037 4.043-2.23 0-4.037-1.832-4.037-4.043a4.037 4.037 0 1 1 8.074 0zm0 11.873a4.037 4.037 0 1 1-8.074 0c0-2.211 1.807-4.018 4.037-4.018 2.231 0 4.037 1.807 4.037 4.018zm0 11.906a4.037 4.037 0 1 1-8.074 0c0-2.211 1.807-4.018 4.037-4.018 2.231 0 4.037 1.807 4.037 4.018zm0 11.9c0 2.21-1.806 4.043-4.037 4.043-2.23 0-4.037-1.832-4.037-4.044 0-2.211 1.807-4.018 4.037-4.018 2.231 0 4.037 1.813 4.037 4.018zm-4.037 15.942a4.037 4.037 0 1 1 0-8.074 4.037 4.037 0 0 1 0 8.074zm0 11.9a4.037 4.037 0 1 1 0-8.075 4.037 4.037 0 0 1 0 8.074zm0 11.905a4.037 4.037 0 1 1 0-8.074 4.037 4.037 0 0 1 0 8.074zm4.037 7.869c0 2.211-1.806 4.043-4.037 4.043-2.23 0-4.037-1.832-4.037-4.043a4.037 4.037 0 1 1 8.074 0zm-4.037 15.936a4.037 4.037 0 1 1 0-8.074 4.037 4.037 0 0 1 0 8.074zm4.037 7.869c0 2.211-1.806 4.018-4.037 4.018-2.23 0-4.037-1.807-4.037-4.018a4.02 4.02 0 0 1 4.037-4.044 4.02 4.02 0 0 1 4.037 4.044zm-4.037 15.936a4.037 4.037 0 1 1 0-8.074 4.037 4.037 0 0 1 0 8.074zm0 11.906a4.037 4.037 0 1 1 0-8.074 4.037 4.037 0 0 1 0 8.074zm0 11.9a4.037 4.037 0 1 1 0-8.075 4.037 4.037 0 0 1 0 8.074zm4.037 7.868c0 2.211-1.806 4.018-4.037 4.018-2.23 0-4.037-1.807-4.037-4.018 0-2.237 1.807-4.07 4.037-4.07 2.231 0 4.037 1.833 4.037 4.07zm-4.037 15.917a4.037 4.037 0 1 1 0-8.074 4.037 4.037 0 0 1 0 8.074zm0 11.9a4.037 4.037 0 1 1 0-8.075 4.037 4.037 0 0 1 0 8.074zm0 11.905a4.037 4.037 0 1 1 0-8.074 4.037 4.037 0 0 1 0 8.074zm0 11.9a4.037 4.037 0 1 1 0-8.075 4.037 4.037 0 0 1 0 8.074zm0 11.905a4.037 4.037 0 1 1 0-8.074 4.037 4.037 0 0 1 0 8.074zm0 11.9a4.037 4.037 0 1 1 0-8.075 4.037 4.037 0 0 1 0 8.074zM278.154 151.03a4.037 4.037 0 1 1 0-8.074 4.037 4.037 0 0 1 0 8.074zm0 11.906a4.037 4.037 0 1 1 0-8.074 4.037 4.037 0 0 1 0 8.074zm0 11.9a4.037 4.037 0 1 1 0-8.075 4.037 4.037 0 0 1 0 8.074zm0 11.88a4.037 4.037 0 1 1 0-8.075 4.037 4.037 0 0 1 0 8.074zm4.037 7.894c0 2.211-1.807 4.043-4.037 4.043-2.231 0-4.038-1.832-4.038-4.043a4.037 4.037 0 1 1 8.075 0zm0 11.873a4.037 4.037 0 1 1-8.075 0c0-2.211 1.807-4.018 4.038-4.018 2.23 0 4.037 1.807 4.037 4.018zm0 11.906a4.037 4.037 0 1 1-8.075 0c0-2.211 1.807-4.018 4.038-4.018 2.23 0 4.037 1.807 4.037 4.018zm0 11.9c0 2.21-1.807 4.043-4.037 4.043-2.231 0-4.038-1.832-4.038-4.044 0-2.211 1.807-4.018 4.038-4.018 2.23 0 4.037 1.813 4.037 4.018zm-4.037 15.942a4.037 4.037 0 1 1 0-8.074 4.037 4.037 0 0 1 0 8.074zm0 11.9a4.037 4.037 0 1 1 0-8.075 4.037 4.037 0 0 1 0 8.074zm0 11.905a4.037 4.037 0 1 1 0-8.074 4.037 4.037 0 0 1 0 8.074zm4.037 7.869c0 2.211-1.807 4.043-4.037 4.043-2.231 0-4.038-1.832-4.038-4.043a4.037 4.037 0 1 1 8.075 0zm-4.037 15.936a4.037 4.037 0 1 1 0-8.074 4.037 4.037 0 0 1 0 8.074zm4.037 7.869c0 2.211-1.807 4.018-4.037 4.018-2.231 0-4.038-1.807-4.038-4.018a4.02 4.02 0 0 1 4.038-4.044 4.02 4.02 0 0 1 4.037 4.044zm-4.037 15.936a4.037 4.037 0 1 1 0-8.074 4.037 4.037 0 0 1 0 8.074zm0 11.906a4.037 4.037 0 1 1 0-8.074 4.037 4.037 0 0 1 0 8.074zm0 11.9a4.037 4.037 0 1 1 0-8.075 4.037 4.037 0 0 1 0 8.074zm4.037 7.868c0 2.211-1.807 4.018-4.037 4.018-2.231 0-4.038-1.807-4.038-4.018 0-2.237 1.807-4.07 4.038-4.07 2.23 0 4.037 1.833 4.037 4.07zm-4.037 15.917a4.037 4.037 0 1 1 0-8.074 4.037 4.037 0 0 1 0 8.074zm0 11.9a4.037 4.037 0 1 1 0-8.075 4.037 4.037 0 0 1 0 8.074zm0 11.905a4.037 4.037 0 1 1 0-8.074 4.037 4.037 0 0 1 0 8.074zm0 11.9a4.037 4.037 0 1 1 0-8.075 4.037 4.037 0 0 1 0 8.074zm0 11.905a4.037 4.037 0 1 1 0-8.074 4.037 4.037 0 0 1 0 8.074zm0 11.9a4.037 4.037 0 1 1 0-8.075 4.037 4.037 0 0 1 0 8.074zm4.037 7.842c0 2.263-1.807 4.07-4.037 4.07-2.231 0-4.038-1.807-4.038-4.07 0-2.211 1.807-4.018 4.038-4.018 2.23 0 4.037 1.807 4.037 4.018zM270.298 16.064a4.044 4.044 0 0 1-4.044 4.069c-2.23 0-4.037-1.807-4.037-4.07 0-2.21 1.807-4.017 4.037-4.017 2.231 0 4.044 1.806 4.044 4.018zm-4.044 15.968a4.037 4.037 0 1 1 0-8.074 4.037 4.037 0 0 1 0 8.074zm0 119a4.037 4.037 0 1 1 0-8.075 4.037 4.037 0 0 1 0 8.074zm0 11.905a4.037 4.037 0 1 1 0-8.074 4.037 4.037 0 0 1 0 8.074zm0 11.9a4.037 4.037 0 1 1 0-8.075 4.037 4.037 0 0 1 0 8.074zm0 11.88a4.037 4.037 0 1 1 0-8.075 4.037 4.037 0 0 1 0 8.074zm4.044 7.894a4.055 4.055 0 0 1-4.044 4.043c-2.23 0-4.037-1.832-4.037-4.043a4.037 4.037 0 0 1 4.037-4.044 4.043 4.043 0 0 1 4.044 4.044zm0 11.873a4.039 4.039 0 0 1-4.044 4.044 4.037 4.037 0 0 1-4.037-4.044c0-2.211 1.807-4.018 4.037-4.018 2.231 0 4.044 1.807 4.044 4.018zm0 11.906a4.039 4.039 0 0 1-4.044 4.044 4.037 4.037 0 0 1-4.037-4.044c0-2.211 1.807-4.018 4.037-4.018 2.231 0 4.044 1.807 4.044 4.018zm0 11.9a4.055 4.055 0 0 1-4.044 4.043c-2.23 0-4.037-1.832-4.037-4.044 0-2.211 1.807-4.018 4.037-4.018 2.231 0 4.044 1.813 4.044 4.018zm-4.044 15.942a4.037 4.037 0 1 1 0-8.074 4.037 4.037 0 0 1 0 8.074zm0 11.9a4.037 4.037 0 1 1 0-8.075 4.037 4.037 0 0 1 0 8.074zm0 11.905a4.037 4.037 0 1 1 0-8.074 4.037 4.037 0 0 1 0 8.074zm4.044 7.869a4.055 4.055 0 0 1-4.044 4.043c-2.23 0-4.037-1.832-4.037-4.043a4.037 4.037 0 0 1 4.037-4.044 4.043 4.043 0 0 1 4.044 4.044zm-4.044 15.936a4.037 4.037 0 1 1 0-8.074 4.037 4.037 0 0 1 0 8.074zm4.044 7.869c0 2.211-1.807 4.018-4.044 4.018-2.23 0-4.037-1.807-4.037-4.018a4.02 4.02 0 0 1 4.037-4.044c2.231 0 4.044 1.78 4.044 4.044zm-4.044 15.936a4.037 4.037 0 1 1 0-8.074 4.037 4.037 0 0 1 0 8.074zm0 11.906a4.037 4.037 0 1 1 0-8.074 4.037 4.037 0 0 1 0 8.074zm0 11.9a4.037 4.037 0 1 1 0-8.075 4.037 4.037 0 0 1 0 8.074zm4.044 7.868c0 2.211-1.807 4.018-4.044 4.018-2.23 0-4.037-1.807-4.037-4.018 0-2.237 1.807-4.07 4.037-4.07 2.231 0 4.044 1.833 4.044 4.07zm-4.044 15.917a4.037 4.037 0 1 1 0-8.074 4.037 4.037 0 0 1 0 8.074zm0 11.9a4.037 4.037 0 1 1 0-8.075 4.037 4.037 0 0 1 0 8.074zm0 11.905a4.037 4.037 0 1 1 0-8.074 4.037 4.037 0 0 1 0 8.074zm0 11.9a4.037 4.037 0 1 1 0-8.075 4.037 4.037 0 0 1 0 8.074zm0 11.905a4.037 4.037 0 1 1 0-8.074 4.037 4.037 0 0 1 0 8.074zm0 11.9a4.037 4.037 0 1 1 0-8.075 4.037 4.037 0 0 1 0 8.074zm4.044 7.842a4.044 4.044 0 0 1-4.044 4.07c-2.23 0-4.037-1.807-4.037-4.07 0-2.211 1.807-4.018 4.037-4.018 2.231 0 4.044 1.807 4.044 4.018zM254.355 8.22a4.037 4.037 0 1 1 0-8.074 4.037 4.037 0 0 1 0 8.075zm4.037 7.844c0 2.262-1.806 4.069-4.037 4.069-2.23 0-4.037-1.807-4.037-4.07 0-2.21 1.806-4.017 4.037-4.017 2.23 0 4.037 1.806 4.037 4.018zm-4.037 15.968a4.037 4.037 0 1 1 0-8.074 4.037 4.037 0 0 1 0 8.074zm0 11.9a4.037 4.037 0 1 1 0-8.075 4.037 4.037 0 0 1 0 8.074zm0 130.904a4.037 4.037 0 1 1 0-8.074 4.037 4.037 0 0 1 0 8.074zm0 11.88a4.037 4.037 0 1 1 0-8.074 4.037 4.037 0 0 1 0 8.074zm4.037 7.895c0 2.211-1.806 4.043-4.037 4.043-2.23 0-4.037-1.832-4.037-4.043a4.037 4.037 0 1 1 8.074 0zm0 11.873a4.037 4.037 0 1 1-8.074 0c0-2.211 1.806-4.018 4.037-4.018 2.23 0 4.037 1.807 4.037 4.018zm0 11.906a4.037 4.037 0 1 1-8.074 0c0-2.211 1.806-4.018 4.037-4.018 2.23 0 4.037 1.807 4.037 4.018zm0 11.9c0 2.21-1.806 4.043-4.037 4.043-2.23 0-4.037-1.832-4.037-4.044 0-2.211 1.806-4.018 4.037-4.018 2.23 0 4.037 1.813 4.037 4.018zm-4.037 15.942a4.037 4.037 0 1 1 0-8.074 4.037 4.037 0 0 1 0 8.074zm0 11.9a4.037 4.037 0 1 1 0-8.075 4.037 4.037 0 0 1 0 8.074zm0 11.905a4.037 4.037 0 1 1 0-8.074 4.037 4.037 0 0 1 0 8.074zm4.037 7.869c0 2.211-1.806 4.043-4.037 4.043-2.23 0-4.037-1.832-4.037-4.043a4.037 4.037 0 1 1 8.074 0zm-4.037 15.936a4.037 4.037 0 1 1 0-8.074 4.037 4.037 0 0 1 0 8.074zm4.037 7.869c0 2.211-1.806 4.018-4.037 4.018-2.23 0-4.037-1.807-4.037-4.018a4.02 4.02 0 0 1 4.037-4.044 4.02 4.02 0 0 1 4.037 4.044zm-4.037 15.936a4.037 4.037 0 1 1 0-8.074 4.037 4.037 0 0 1 0 8.074zm0 11.906a4.037 4.037 0 1 1 0-8.074 4.037 4.037 0 0 1 0 8.074zm0 11.9a4.037 4.037 0 1 1 0-8.075 4.037 4.037 0 0 1 0 8.074zm4.037 7.868c0 2.211-1.806 4.018-4.037 4.018-2.23 0-4.037-1.807-4.037-4.018 0-2.237 1.806-4.07 4.037-4.07 2.23 0 4.037 1.833 4.037 4.07zm-4.037 15.917a4.037 4.037 0 1 1 0-8.074 4.037 4.037 0 0 1 0 8.074zm0 11.9a4.037 4.037 0 1 1 0-8.075 4.037 4.037 0 0 1 0 8.074zm0 11.905a4.037 4.037 0 1 1 0-8.074 4.037 4.037 0 0 1 0 8.074zm0 11.9a4.037 4.037 0 1 1 0-8.075 4.037 4.037 0 0 1 0 8.074zm0 11.905a4.037 4.037 0 1 1 0-8.074 4.037 4.037 0 0 1 0 8.074zm0 11.9a4.037 4.037 0 1 1 0-8.075 4.037 4.037 0 0 1 0 8.074zm4.037 7.842c0 2.263-1.806 4.07-4.037 4.07-2.23 0-4.037-1.807-4.037-4.07 0-2.211 1.806-4.018 4.037-4.018 2.23 0 4.037 1.807 4.037 4.018zM242.456 8.22a4.037 4.037 0 1 1 0-8.074 4.037 4.037 0 0 1 0 8.075zm4.037 7.844c0 2.262-1.807 4.069-4.037 4.069-2.231 0-4.037-1.807-4.037-4.07 0-2.21 1.806-4.017 4.037-4.017 2.23 0 4.037 1.806 4.037 4.018zm-4.037 15.968a4.037 4.037 0 1 1 0-8.074 4.037 4.037 0 0 1 0 8.074zm0 11.9a4.037 4.037 0 1 1 0-8.075 4.037 4.037 0 0 1 0 8.074zm4.037 7.868a4.037 4.037 0 1 1-8.074 0 4.02 4.02 0 0 1 4.037-4.044 4.02 4.02 0 0 1 4.037 4.044zm-4.037 134.916a4.037 4.037 0 1 1 0-8.074 4.037 4.037 0 0 1 0 8.074zm4.037 7.895c0 2.211-1.807 4.043-4.037 4.043-2.231 0-4.037-1.832-4.037-4.043a4.037 4.037 0 1 1 8.074 0zm0 11.873a4.037 4.037 0 1 1-8.074 0c0-2.211 1.806-4.018 4.037-4.018 2.23 0 4.037 1.807 4.037 4.018zm0 11.906a4.037 4.037 0 1 1-8.074 0c0-2.211 1.806-4.018 4.037-4.018 2.23 0 4.037 1.807 4.037 4.018zm0 11.9c0 2.21-1.807 4.043-4.037 4.043-2.231 0-4.037-1.832-4.037-4.044 0-2.211 1.806-4.018 4.037-4.018 2.23 0 4.037 1.813 4.037 4.018zm-4.037 15.942a4.037 4.037 0 1 1 0-8.074 4.037 4.037 0 0 1 0 8.074zm0 11.9a4.037 4.037 0 1 1 0-8.075 4.037 4.037 0 0 1 0 8.074zxÀ    xÀ                     '»            PÏ    øxÀ            °xÀ     @      °xÀ            43-2.231 0-4.037-1.832-4.037-4.043a4.037 4.037 0 1 1 8.074 0zm-4.037 15.936a4.037 4.037 0 1 1 0-8.074 4.037 4.037 0 0 1 0 8.074zm4.037 7.869c0 2.211-1.807 4.018-4.037 4.018-2.231 0-4.037-1.807-4.037-4.018a4.02 4.02 0 0 1 4.037-4.044 4.02 4.02 0 0 1 4.037 4.044zm-4.037 15.936a4.037 4.037 0 1 1 0-8.074 4.037 4.037 0 0 1 0 8.074zm0 11.906a4.037 4.037 0 1 1 0-8.074 4.037 4.037 0 0 1 0 8.074zm0 11.9a4.037 4.037 0 1 1 0-8.075 4.037 4.037 0 0 1 0 8.074zm4.037 7.868c0 2.211-1.807 4.018-4.037 4.018-2.231 0-4.037-1.807-4.037-4.018 0-2.237 1.806-4.07 4.037-4.07 2.23 0 4.037 1.833 4.037 4.07zm-4.037 15.917a4.037 4.037 0 1 1 0-8.074 4.037 4.037 0 0 1 0 8.074zm0 11.9a4.037 4.037 0 1 1 0-8.075 4.037 4.037 0 0 1 0 8.074zm0 11.905a4.037 4.037 0 1 1 0-8.074 4.037 4.037 0 0 1 0 8.074zm0 11.9a4.037 4.037 0 1 1 0-8.075 4.037 4.037 0 0 1 0 8.074zm0 11.905a4.037 4.037 0 1 1 0-8.074 4.037 4.037 0 0 1 0 8.074zm0 11.9a4.037 4.037 0 1 1 0-8.075 4.037 4.037 0 0 1 0 8.074zm4.037 7.842c0 2.263-1.807 4.07-4.037 4.07-2.231 0-4.037-1.807-4.037-4.07 0-2.211 1.806-4.018 4.037-4.018 2.23 0 4.037 1.807 4.037 4.018zm-11.9-416.526c0 2.262-1.806 4.069-4.037 4.069a4.044 4.044 0 0 1-4.043-4.07c0-2.21 1.806-4.017 4.043-4.017 2.231 0 4.038 1.806 4.038 4.018zm-4.037 15.968a4.037 4.037 0 1 1 0-8.074 4.037 4.037 0 0 1 0 8.074zm0 11.9a4.037 4.037 0 1 1 0-8.075 4.037 4.037 0 0 1 0 8.074zm4.038 7.868a4.037 4.037 0 0 1-4.038 4.044 4.039 4.039 0 0 1-4.043-4.044 4.022 4.022 0 0 1 4.043-4.044 4.02 4.02 0 0 1 4.038 4.044zm0 11.9c0 2.185-1.807 4.017-4.038 4.017-2.237 0-4.043-1.832-4.043-4.018a4.041 4.041 0 0 1 8.08 0zm-4.038 15.942a4.037 4.037 0 1 1 0-8.074 4.037 4.037 0 0 1 0 8.074zm0 11.9a4.037 4.037 0 1 1 0-8.075 4.037 4.037 0 0 1 0 8.074zm0 95.174a4.037 4.037 0 1 1 0-8.074 4.037 4.037 0 0 1 0 8.074zm4.038 7.895c0 2.211-1.807 4.043-4.038 4.043a4.055 4.055 0 0 1-4.043-4.043 4.039 4.039 0 0 1 4.043-4.044 4.037 4.037 0 0 1 4.038 4.044zm0 11.873a4.037 4.037 0 0 1-4.038 4.044 4.039 4.039 0 0 1-4.043-4.044c0-2.211 1.806-4.018 4.043-4.018 2.231 0 4.038 1.807 4.038 4.018zm0 11.906a4.037 4.037 0 0 1-4.038 4.044 4.039 4.039 0 0 1-4.043-4.044c0-2.211 1.806-4.018 4.043-4.018 2.231 0 4.038 1.807 4.038 4.018zm0 11.9c0 2.21-1.807 4.043-4.038 4.043a4.055 4.055 0 0 1-4.043-4.044c0-2.211 1.806-4.018 4.043-4.018 2.231 0 4.038 1.813 4.038 4.018zm-4.038 15.942a4.037 4.037 0 1 1 0-8.074 4.037 4.037 0 0 1 0 8.074zm0 11.9a4.037 4.037 0 1 1 0-8.075 4.037 4.037 0 0 1 0 8.074zm0 11.905a4.037 4.037 0 1 1 0-8.074 4.037 4.037 0 0 1 0 8.074zm4.038 7.869c0 2.211-1.807 4.043-4.038 4.043a4.055 4.055 0 0 1-4.043-4.043 4.039 4.039 0 0 1 4.043-4.044 4.037 4.037 0 0 1 4.038 4.044zm-4.038 15.936a4.037 4.037 0 1 1 0-8.074 4.037 4.037 0 0 1 0 8.074zm4.038 7.869c0 2.211-1.807 4.018-4.038 4.018-2.237 0-4.043-1.807-4.043-4.018a4.022 4.022 0 0 1 4.043-4.044 4.02 4.02 0 0 1 4.038 4.044zm-4.038 15.936a4.037 4.037 0 1 1 0-8.074 4.037 4.037 0 0 1 0 8.074zm0 11.906a4.037 4.037 0 1 1 0-8.074 4.037 4.037 0 0 1 0 8.074zm0 11.9a4.037 4.037 0 1 1 0-8.075 4.037 4.037 0 0 1 0 8.074zm4.038 7.868c0 2.211-1.807 4.018-4.038 4.018-2.237 0-4.043-1.807-4.043-4.018 0-2.237 1.806-4.07 4.043-4.07 2.231 0 4.038 1.833 4.038 4.07zm-4.038 15.917a4.037 4.037 0 1 1 0-8.074 4.037 4.037 0 0 1 0 8.074zm0 11.9a4.037 4.037 0 1 1 0-8.075 4.037 4.037 0 0 1 0 8.074zm0 11.905a4.037 4.037 0 1 1 0-8.074 4.037 4.037 0 0 1 0 8.074zm0 11.9a4.037 4.037 0 1 1 0-8.075 4.037 4.037 0 0 1 0 8.074zm0 11.905a4.037 4.037 0 1 1 0-8.074 4.037 4.037 0 0 1 0 8.074zm0 11.9a4.037 4.037 0 1 1 0-8.075 4.037 4.037 0 0 1 0 8.074zm4.038 7.842c0 2.263-1.807 4.07-4.038 4.07a4.044 4.044 0 0 1-4.043-4.07c0-2.211 1.806-4.018 4.043-4.018 2.231 0 4.038 1.807 4.038 4.018zm0 11.906c0 2.263-1.807 4.069-4.038 4.069a4.044 4.044 0 0 1-4.043-4.07c0-2.21 1.806-4.017 4.043-4.017 2.231 0 4.038 1.806 4.038 4.018zM222.688 16.064c0 2.262-1.807 4.069-4.037 4.069-2.231 0-4.037-1.807-4.037-4.07 0-2.21 1.806-4.017 4.037-4.017 2.23 0 4.037 1.806 4.037 4.018zm-4.037 15.968a4.037 4.037 0 1 1 0-8.074 4.037 4.037 0 0 1 0 8.074zm0 11.9a4.037 4.037 0 1 1 0-8.075 4.037 4.037 0 0 1 0 8.074zm4.037 7.868a4.037 4.037 0 1 1-8.074 0 4.02 4.02 0 0 1 4.037-4.044 4.02 4.02 0 0 1 4.037 4.044zm0 11.9c0 2.185-1.807 4.017-4.037 4.017-2.231 0-4.037-1.832-4.037-4.018a4.037 4.037 0 1 1 8.074 0zm-4.037 15.942a4.037 4.037 0 1 1 0-8.074 4.037 4.037 0 0 1 0 8.074zm0 11.9a4.037 4.037 0 1 1 0-8.075 4.037 4.037 0 0 1 0 8.074zm0 83.294a4.037 4.037 0 1 1 0-8.074 4.037 4.037 0 0 1 0 8.074zm0 11.88a4.037 4.037 0 1 1 0-8.074 4.037 4.037 0 0 1 0 8.074zm4.037 7.895c0 2.211-1.807 4.043-4.037 4.043-2.231 0-4.037-1.832-4.037-4.043a4.037 4.037 0 1 1 8.074 0zm0 11.873a4.037 4.037 0 1 1-8.074 0c0-2.211 1.806-4.018 4.037-4.018 2.23 0 4.037 1.807 4.037 4.018zm0 11.906a4.037 4.037 0 1 1-8.074 0c0-2.211 1.806-4.018 4.037-4.018 2.23 0 4.037 1.807 4.037 4.018zm0 11.9c0 2.21-1.807 4.043-4.037 4.043-2.231 0-4.037-1.832-4.037-4.044 0-2.211 1.806-4.018 4.037-4.018 2.23 0 4.037 1.813 4.037 4.018zm-4.037 15.942a4.037 4.037 0 1 1 0-8.074 4.037 4.037 0 0 1 0 8.074zm0 11.9a4.037 4.037 0 1 1 0-8.075 4.037 4.037 0 0 1 0 8.074zm0 11.905a4.037 4.037 0 1 1 0-8.074 4.037 4.037 0 0 1 0 8.074zm4.037 7.869c0 2.211-1.807 4.043-4.037 4.043-2.231 0-4.037-1.832-4.037-4.043a4.037 4.037 0 1 1 8.074 0zm-4.037 15.936a4.037 4.037 0 1 1 0-8.074 4.037 4.037 0 0 1 0 8.074zm4.037 7.869c0 2.211-1.807 4.018-4.037 4.018-2.231 0-4.037-1.807-4.037-4.018a4.02 4.02 0 0 1 4.037-4.044 4.02 4.02 0 0 1 4.037 4.044zm-4.037 15.936a4.037 4.037 0 1 1 0-8.074 4.037 4.037 0 0 1 0 8.074zm0 11.906a4.037 4.037 0 1 1 0-8.074 4.037 4.037 0 0 1 0 8.074zm0 11.9a4.037 4.037 0 1 1 0-8.075 4.037 4.037 0 0 1 0 8.074zm4.037 7.868c0 2.211-1.807 4.018-4.037 4.018-2.231 0-4.037-1.807-4.037-4.018 0-2.237 1.806-4.07 4.037-4.07 2.23 0 4.037 1.833 4.037 4.07zm-4.037 15.917a4.037 4.037 0 1 1 0-8.074 4.037 4.037 0 0 1 0 8.074zm0 11.9a4.037 4.037 0 1 1 0-8.075 4.037 4.037 0 0 1 0 8.074zm0 11.905a4.037 4.037 0 1 1 0-8.074 4.037 4.037 0 0 1 0 8.074zm0 11.9a4.037 4.037 0 1 1 0-8.075 4.037 4.037 0 0 1 0 8.074zm0 11.905a4.037 4.037 0 1 1 0-8.074 4.037 4.037 0 0 1 0 8.074zm0 11.9a4.037 4.037 0 1 1 0-8.075 4.037 4.037 0 0 1 0 8.074zm4.037 7.842c0 2.263-1.807 4.07-4.037 4.07-2.231 0-4.037-1.807-4.037-4.07 0-2.211 1.806-4.018 4.037-4.018 2.23 0 4.037 1.807 4.037 4.018zm0 11.906c0 2.263-1.807 4.069-4.037 4.069-2.231 0-4.037-1.806-4.037-4.07 0-2.21 1.806-4.017 4.037-4.017 2.23 0 4.037 1.806 4.037 4.018zM206.75 32.032a4.037 4.037 0 1 1 0-8.074 4.037 4.037 0 0 1 0 8.074zm0 11.9a4.037 4.037 0 1 1 0-8.075 4.037 4.037 0 0 1 0 8.074zm4.038 7.868a4.037 4.037 0 1 1-8.074 0 4.02 4.02 0 0 1 4.036-4.044 4.017 4.017 0 0 1 4.038 4.044zm0 11.9c0 2.185-1.8 4.017-4.038 4.017-2.23 0-4.037-1.832-4.037-4.018a4.037 4.037 0 1 1 8.075 0zm-4.038 15.942a4.037 4.037 0 1 1 0-8.074 4.037 4.037 0 0 1 0 8.074zm0 11.9a4.037 4.037 0 1 1 0-8.075 4.037 4.037 0 0 1 0 8.074zm0 23.785a4.037 4.037 0 1 1 0-8.074 4.037 4.037 0 0 1 0 8.074zm0 47.61a4.037 4.037 0 1 1 0-8.074 4.037 4.037 0 0 1 0 8.074zm0 11.9a4.037 4.037 0 1 1 0-8.075 4.037 4.037 0 0 1 0 8.074zm0 11.88a4.037 4.037 0 1 1 0-8.075 4.037 4.037 0 0 1 0 8.074zm4.038 7.894c0 2.211-1.8 4.043-4.038 4.043-2.23 0-4.037-1.832-4.037-4.043a4.037 4.037 0 1 1 8.075 0zm0 11.873a4.037 4.037 0 1 1-8.074 0c0-2.211 1.806-4.018 4.036-4.018a4.028 4.028 0 0 1 4.038 4.018zm0 11.906a4.037 4.037 0 1 1-8.074 0c0-2.211 1.806-4.018 4.036-4.018a4.028 4.028 0 0 1 4.038 4.018zm0 11.9c0 2.21-1.8 4.043-4.038 4.043-2.23 0-4.037-1.832-4.037-4.044 0-2.211 1.807-4.018 4.037-4.018 2.238 0 4.038 1.813 4.038 4.018zm-4.038 15.942a4.037 4.037 0 1 1 0-8.074 4.037 4.037 0 0 1 0 8.074zm0 11.9a4.037 4.037 0 1 1 0-8.075 4.037 4.037 0 0 1 0 8.074zm0 11.905a4.037 4.037 0 1 1 0-8.074 4.037 4.037 0 0 1 0 8.074zm4.038 7.869c0 2.211-1.8 4.043-4.038 4.043-2.23 0-4.037-1.832-4.037-4.043a4.037 4.037 0 1 1 8.075 0zm-4.038 15.936a4.037 4.037 0 1 1 0-8.074 4.037 4.037 0 0 1 0 8.074zm4.038 7.869c0 2.211-1.8 4.018-4.038 4.018-2.23 0-4.037-1.807-4.037-4.018a4.02 4.02 0 0 1 4.037-4.044 4.017 4.017 0 0 1 4.038 4.044zm-4.038 15.936a4.037 4.037 0 1 1 0-8.074 4.037 4.037 0 0 1 0 8.074zm0 11.906a4.037 4.037 0 1 1 0-8.074 4.037 4.037 0 0 1 0 8.074zm0 11.9a4.037 4.037 0 1 1 0-8.075 4.037 4.037 0 0 1 0 8.074zm4.038 7.868c0 2.211-1.8 4.018-4.038 4.018-2.23 0-4.037-1.807-4.037-4.018 0-2.237 1.807-4.07 4.037-4.07 2.238 0 4.038 1.833 4.038 4.07zm-4.038 15.917a4.037 4.037 0 1 1 0-8.074 4.037 4.037 0 0 1 0 8.074zm0 11.9a4.037 4.037 0 1 1 0-8.075 4.037 4.037 0 0 1 0 8.074zm0 11.905a4.037 4.037 0 1 1 0-8.074 4.037 4.037 0 0 1 0 8.074zm0 11.9a4.037 4.037 0 1 1 0-8.075 4.037 4.037 0 0 1 0 8.074zm0 11.905a4.037 4.037 0 1 1 0-8.074 4.037 4.037 0 0 1 0 8.074zm0 11.9a4.037 4.037 0 1 1 0-8.075 4.037 4.037 0 0 1 0 8.074zm4.038 7.842c0 2.263-1.8 4.07-4.038 4.07-2.23 0-4.037-1.807-4.037-4.07 0-2.211 1.807-4.018 4.037-4.018a4.028 4.028 0 0 1 4.038 4.018zm0 11.906c0 2.263-1.8 4.069-4.038 4.069-2.23 0-4.037-1.806-4.037-4.07 0-2.21 1.807-4.017 4.037-4.017a4.028 4.028 0 0 1 4.038 4.018zM194.852 32.032a4.037 4.037 0 1 1 0-8.074 4.037 4.037 0 0 1 0 8.074zm0 11.9a4.037 4.037 0 1 1 0-8.075 4.037 4.037 0 0 1 0 8.074zm4.037 7.868a4.037 4.037 0 1 1-8.074 0 4.02 4.02 0 0 1 4.037-4.044 4.02 4.02 0 0 1 4.037 4.044zm0 11.9c0 2.185-1.806 4.017-4.037 4.017-2.23 0-4.037-1.832-4.037-4.018a4.037 4.037 0 1 1 8.074 0zm-4.037 15.942a4.037 4.037 0 1 1 0-8.074 4.037 4.037 0 0 1 0 8.074zm0 11.9a4.037 4.037 0 1 1 0-8.075 4.037 4.037 0 0 1 0 8.074zm4.037 7.817c0 2.262-1.806 4.069-4.037 4.069-2.23 0-4.037-1.807-4.037-4.07 0-2.21 1.806-4.017 4.037-4.017 2.23 0 4.037 1.806 4.037 4.018zm-4.037 15.968a4.037 4.037 0 1 1 0-8.074 4.037 4.037 0 0 1 0 8.074zm0 35.704a4.037 4.037 0 1 1 0-8.074 4.037 4.037 0 0 1 0 8.074zm0 11.906a4.037 4.037 0 1 1 0-8.074 4.037 4.037 0 0 1 0 8.074zm0 11.9a4.037 4.037 0 1 1 0-8.075 4.037 4.037 0 0 1 0 8.074zm0 11.88a4.037 4.037 0 1 1 0-8.075 4.037 4.037 0 0 1 0 8.074zm4.037 7.894c0 2.211-1.806 4.043-4.037 4.043-2.23 0-4.037-1.832-4.037-4.043a4.037 4.037 0 1 1 8.074 0zm0 11.873a4.037 4.037 0 1 1-8.074 0c0-2.211 1.806-4.018 4.037-4.018 2.23 0 4.037 1.807 4.037 4.018zm0 11.906a4.037 4.037 0 1 1-8.074 0c0-2.211 1.806-4.018 4.037-4.018 2.23 0 4.037 1.807 4.037 4.018zm0 11.9c0 2.21-1.806 4.043-4.037 4.043-2.23 0-4.037-1.832-4.037-4.044 0-2.211 1.806-4.018 4.037-4.018 2.23 0 4.037 1.813 4.037 4.018zm-4.037 15.942a4.037 4.037 0 1 1 0-8.074 4.037 4.037 0 0 1 0 8.074zm0 11.9a4.037 4.037 0 1 1 0-8.075 4.037 4.037 0 0 1 0 8.074zm0 11.905a4.037 4.037 0 1 1 0-8.074 4.037 4.037 0 0 1 0 8.074zm4.037 7.869c0 2.211-1.806 4.043-4.037 4.043-2.23 0-4.037-1.832-4.037-4.043a4.037 4.037 0 1 1 8.074 0zm-4.037 15.936a4.037 4.037 0 1 1 0-8.074 4.037 4.037 0 0 1 0 8.074zm4.037 7.869c0 2.211-1.806 4.018-4.037 4.018-2.23 0-4.037-1.807-4.037-4.018a4.02 4.02 0 0 1 4.037-4.044 4.02 4.02 0 0 1 4.037 4.044zm-4.037 15.936a4.037 4.037 0 1 1 0-8.074 4.037 4.037 0 0 1 0 8.074zm0 11.906a4.037 4.037 0 1 1 0-8.074 4.037 4.037 0 0 1 0 8.074zm0 11.9a4.037 4.037 0 1 1 0-8.075 4.037 4.037 0 0 1 0 8.074zm4.037 7.868c0 2.211-1.806 4.018-4.037 4.018-2.23 0-4.037-1.807-4.037-4.018 0-2.237 1.806-4.07 4.037-4.07 2.23 0 4.037 1.833 4.037 4.07zm-4.037 15.917a4.037 4.037 0 1 1 0-8.074 4.037 4.037 0 0 1 0 8.074zm0 11.9a4.037 4.037 0 1 1 0-8.075 4.037 4.037 0 0 1 0 8.074zm0 11.905a4.037 4.037 0 1 1 0-8.074 4.037 4.037 0 0 1 0 8.074zm0 11.9a4.037 4.037 0 1 1 0-8.075 4.037 4.037 0 0 1 0 8.074zm0 11.905a4.037 4.037 0 1 1 0-8.074 4.037 4.037 0 0 1 0 8.074zm0 11.9a4.037 4.037 0 1 1 0-8.075 4.037 4.037 0 0 1 0 8.074zm4.037 7.842c0 2.263-1.806 4.07-4.037 4.07-2.23 0-4.037-1.807-4.037-4.07 0-2.211 1.806-4.018 4.037-4.018 2.23 0 4.037 1.807 4.037 4.018zm0 11.906c0 2.263-1.806 4.069-4.037 4.069-2.23 0-4.037-1.806-4.037-4.07 0-2.21 1.806-4.017 4.037-4.017 2.23 0 4.037 1.806 4.037 4.018zM182.953 43.93a4.037 4.037 0 1 1 0-8.074 4.037 4.037 0 0 1 0 8.074zm4.037 7.869a4.037 4.037 0 1 1-8.074 0 4.02 4.02 0 0 1 4.037-4.044 4.025 4.025 0 0 1 4.037 4.044zm0 11.9c0 2.185-1.806 4.017-4.037 4.017-2.23 0-4.037-1.832-4.037-4.018a4.037 4.037 0 0 1 4.037-4.043 4.045 4.045 0 0 1 4.037 4.043zm-4.037 15.942a4.037 4.037 0 1 1 0-8.074 4.037 4.037 0 0 1 0 8.074zm0 11.9a4.037 4.037 0 1 1 0-8.075 4.037 4.037 0 0 1 0 8.074zm4.037 7.817c0 2.262-1.806 4.069-4.037 4.069-2.23 0-4.037-1.807-4.037-4.07 0-2.21 1.806-4.017 4.037-4.017 2.224 0 4.037 1.806 4.037 4.018zm-4.037 15.968a4.037 4.037 0 1 1 0-8.074 4.037 4.037 0 0 1 0 8.074zm0 11.9a4.037 4.037 0 1 1 0-8.075 4.037 4.037 0 0 1 0 8.074zm0 11.905a4.037 4.037 0 1 1 0-8.074 4.037 4.037 0 0 1 0 8.074zm0 11.9a4.037 4.037 0 1 1 0-8.075 4.037 4.037 0 0 1 0 8.074zm0 11.905a4.037 4.037 0 1 1 0-8.074 4.037 4.037 0 0 1 0 8.074zm0 11.9a4.037 4.037 0 1 1 0-8.075 4.037 4.037 0 0 1 0 8.074zm0 11.88a4.037 4.037 0 1 1 0-8.075 4.037 4.037 0 0 1 0 8.074zm4.037 7.894c0 2.211-1.806 4.043-4.037 4.043-2.23 0-4.037-1.832-4.037-4.043a4.037 4.037 0 1 1 8.074 0zm0 11.873a4.037 4.037 0 1 1-8.074 0c0-2.211 1.806-4.018 4.037-4.018 2.224 0 4.037 1.807 4.037 4.018zm0 11.906a4.037 4.037 0 1 1-8.074 0c0-2.211 1.806-4.018 4.037-4.018 2.224 0 4.037 1.807 4.037 4.018zm0 11.9c0 2.21-1.806 4.043-4.037 4.043-2.23 0-4.037-1.832-4.037-4.044 0-2.211 1.806-4.018 4.037-4.018 2.224 0 4.037 1.813 4.037 4.018zm-4.037 15.942a4.037 4.037 0 1 1 0-8.074 4.037 4.037 0 0 1 0 8.074zm0 11.9a4.037 4.037 0 1 1 0-8.075 4.037 4.037 0 0 1 0 8.074zm0 11.905a4.037 4.037 0 1 1 0-8.074 4.037 4.037 0 0 1 0 8.074zm4.037 7.869c0 2.211-1.806 4.043-4.037 4.043-2.23 0-4.037-1.832-4.037-4.043a4.037 4.037 0 1 1 8.074 0zm-4.037 15.936a4.037 4.037 0 1 1 0-8.074 4.037 4.037 0 0 1 0 8.074zm4.037 7.869c0 2.211-1.806 4.018-4.037 4.018-2.23 0-4.037-1.807-4.037-4.018a4.02 4.02 0 0 1 4.037-4.044 4.025 4.025 0 0 1 4.037 4.044zm-4.037 15.936a4.037 4.037 0 1 1 0-8.074 4.037 4.037 0 0 1 0 8.074zm0 11.906a4.037 4.037 0 1 1 0-8.074 4.037 4.037 0 0 1 0 8.074zm0 11.9a4.037 4.037 0 1 1 0-8.075 4.037 4.037 0 0 1 0 8.074zm4.037 7.868c0 2.211-1.806 4.018-4.037 4.018-2.23 0-4.037-1.807-4.037-4.018 0-2.237 1.806-4.07 4.037-4.07 2.224 0 4.037 1.833 4.037 4.07zm-4.037 15.917a4.037 4.037 0 1 1 0-8.074 4.037 4.037 0 0 1 0 8.074zm0 11.9a4.037 4.037 0 1 1 0-8.075 4.037 4.037 0 0 1 0 8.074zm0 11.905a4.037 4.037 0 1 1 0-8.074 4.037 4.037 0 0 1 0 8.074zm0 11.9a4.037 4.037 0 1 1 0-8.075 4.037 4.037 0 0 1 0 8.074zm0 11.905a4.037 4.037 0 1 1 0-8.074 4.037 4.037 0 0 1 0 8.074zm0 11.9a4.037 4.037 0 1 1 0-8.075 4.037 4.037 0 0 1 0 8.074zm4.037 7.842c0 2.263-1.806 4.07-4.037 4.07-2.23 0-4.037-1.807-4.037-4.07 0-2.211 1.806-4.018 4.037-4.018 2.224 0 4.037 1.807 4.037 4.018zm0 11.906c0 2.263-1.806 4.069-4.037 4.069-2.23 0-4.037-1.806-4.037-4.07 0-2.21 1.806-4.017 4.037-4.017 2.224 0 4.037 1.806 4.037 4.018zM171.047 43.93a4.037 4.037 0 1 1 0-8.074 4.037 4.037 0 0 1 0 8.074zm4.044 7.869a4.037 4.037 0 1 1-8.075 0 4.02 4.02 0 0 1 4.038-4.044 4.025 4.025 0 0 1 4.037 4.044zm0 11.9c0 2.185-1.807 4.017-4.037 4.017-2.231 0-4.038-1.832-4.038-4.018a4.037 4.037 0 0 1 4.038-4.043 4.045 4.045 0 0 1 4.037 4.043zm-4.044 15.942a4.037 4.037 0 1 1 0-8.074 4.037 4.037 0 0 1 0 8.074zm0 11.9a4.037 4.037 0 1 1 0-8.075 4.037 4.037 0 0 1 0 8.074zm4.044 7.817c0 2.262-1.807 4.069-4.037 4.069-2.231 0-4.038-1.807-4.038-4.07 0-2.21 1.807-4.017 4.038-4.017 2.224 0 4.037 1.806 4.037 4.018zm-4.044 27.867a4.037 4.037 0 1 1 0-8.074 4.037 4.037 0 0 1 0 8.074zm0 11.906a4.037 4.037 0 1 1 0-8.074 4.037 4.037 0 0 1 0 8.074zm0 11.9a4.037 4.037 0 1 1 0-8.075 4.037 4.037 0 0 1 0 8.074zm0 11.905a4.037 4.037 0 1 1 0-8.074 4.037 4.037 0 0 1 0 8.074zm0 11.9a4.037 4.037 0 1 1 0-8.075 4.037 4.037 0 0 1 0 8.074zm0 11.88a4.037 4.037 0 1 1 0-8.075 4.037 4.037 0 0 1 0 8.074zm4.044 7.894c0 2.211-1.807 4.043-4.037 4.043-2.231 0-4.038-1.832-4.038-4.043a4.037 4.037 0 1 1 8.075 0zm0 11.873a4.037 4.037 0 1 1-8.075 0c0-2.211 1.807-4.018 4.038-4.018 2.224 0 4.037 1.807 4.037 4.018zm0 11.906a4.037 4.037 0 1 1-8.075 0c0-2.211 1.807-4.018 4.038-4.018 2.224 0 4.037 1.807 4.037 4.018zm0 11.9c0 2.21-1.807 4.043-4.037 4.043-2.231 0-4.038-1.832-4.038-4.044 0-2.211 1.807-4.018 4.038-4.018 2.224 0 4.037 1.813 4.037 4.018zm-4.044 15.942a4.037 4.037 0 1 1 0-8.074 4.037 4.037 0 0 1 0 8.074zm0 11.9a4.037 4.037 0 1 1 0-8.075 4.037 4.037 0 0 1 0 8.074zm0 11.905a4.037 4.037 0 1 1 0-8.074 4.037 4.037 0 0 1 0 8.074zm4.044 7.869c0 2.211-1.807 4.043-4.037 4.043-2.231 0-4.038-1.832-xÀ    xÀ                     '»            PÏ    øxÀ            °xÀ     @      °xÀ            zm4.044 7.869c0 2.211-1.807 4.018-4.037 4.018-2.231 0-4.038-1.807-4.038-4.018a4.02 4.02 0 0 1 4.038-4.044 4.025 4.025 0 0 1 4.037 4.044zm-4.044 15.936a4.037 4.037 0 1 1 0-8.074 4.037 4.037 0 0 1 0 8.074zm0 11.906a4.037 4.037 0 1 1 0-8.074 4.037 4.037 0 0 1 0 8.074zm0 11.9a4.037 4.037 0 1 1 0-8.075 4.037 4.037 0 0 1 0 8.074zm4.044 7.868c0 2.211-1.807 4.018-4.037 4.018-2.231 0-4.038-1.807-4.038-4.018 0-2.237 1.807-4.07 4.038-4.07 2.224 0 4.037 1.833 4.037 4.07zm-4.044 15.917a4.037 4.037 0 1 1 0-8.074 4.037 4.037 0 0 1 0 8.074zm0 11.9a4.037 4.037 0 1 1 0-8.075 4.037 4.037 0 0 1 0 8.074zm0 11.905a4.037 4.037 0 1 1 0-8.074 4.037 4.037 0 0 1 0 8.074zm0 11.9a4.037 4.037 0 1 1 0-8.075 4.037 4.037 0 0 1 0 8.074zm0 11.905a4.037 4.037 0 1 1 0-8.074 4.037 4.037 0 0 1 0 8.074zm0 11.9a4.037 4.037 0 1 1 0-8.075 4.037 4.037 0 0 1 0 8.074zm4.044 7.842c0 2.263-1.807 4.07-4.037 4.07-2.231 0-4.038-1.807-4.038-4.07 0-2.211 1.807-4.018 4.038-4.018 2.224 0 4.037 1.807 4.037 4.018zm0 11.906c0 2.263-1.807 4.069-4.037 4.069-2.231 0-4.038-1.806-4.038-4.07 0-2.21 1.807-4.017 4.038-4.017 2.224 0 4.037 1.806 4.037 4.018zM163.19 51.8a4.037 4.037 0 1 1-8.074 0 4.02 4.02 0 0 1 4.037-4.044 4.025 4.025 0 0 1 4.037 4.044zm0 11.9c0 2.185-1.806 4.017-4.037 4.017-2.23 0-4.037-1.832-4.037-4.018a4.037 4.037 0 0 1 4.037-4.043 4.045 4.045 0 0 1 4.037 4.043zm-4.043 15.942a4.037 4.037 0 1 1 0-8.074 4.037 4.037 0 0 1 0 8.074zm0 11.9a4.037 4.037 0 1 1 0-8.075 4.037 4.037 0 0 1 0 8.074zm4.043 7.817c0 2.262-1.806 4.069-4.037 4.069-2.23 0-4.037-1.807-4.037-4.07 0-2.21 1.807-4.017 4.037-4.017 2.225 0 4.037 1.806 4.037 4.018zm-4.043 15.968a4.037 4.037 0 1 1 0-8.074 4.037 4.037 0 0 1 0 8.074zm0 23.805a4.037 4.037 0 1 1 0-8.074 4.037 4.037 0 0 1 0 8.074zm0 11.9a4.037 4.037 0 1 1 0-8.075 4.037 4.037 0 0 1 0 8.074zm0 11.905a4.037 4.037 0 1 1 0-8.074 4.037 4.037 0 0 1 0 8.074zm0 11.9a4.037 4.037 0 1 1 0-8.075 4.037 4.037 0 0 1 0 8.074zm0 11.88a4.037 4.037 0 1 1 0-8.075 4.037 4.037 0 0 1 0 8.074zm4.043 7.894c0 2.211-1.806 4.043-4.037 4.043-2.23 0-4.037-1.832-4.037-4.043a4.037 4.037 0 1 1 8.074 0zm0 11.873a4.037 4.037 0 1 1-8.074 0c0-2.211 1.807-4.018 4.037-4.018 2.225 0 4.037 1.807 4.037 4.018zm0 11.906a4.037 4.037 0 1 1-8.074 0c0-2.211 1.807-4.018 4.037-4.018 2.225 0 4.037 1.807 4.037 4.018zm0 11.9c0 2.21-1.806 4.043-4.037 4.043-2.23 0-4.037-1.832-4.037-4.044 0-2.211 1.807-4.018 4.037-4.018 2.225 0 4.037 1.813 4.037 4.018zm-4.043 15.942a4.037 4.037 0 1 1 0-8.074 4.037 4.037 0 0 1 0 8.074zm0 11.9a4.037 4.037 0 1 1 0-8.075 4.037 4.037 0 0 1 0 8.074zm0 11.905a4.037 4.037 0 1 1 0-8.074 4.037 4.037 0 0 1 0 8.074zm4.043 7.869c0 2.211-1.806 4.043-4.037 4.043-2.23 0-4.037-1.832-4.037-4.043a4.037 4.037 0 1 1 8.074 0zm-4.043 15.936a4.037 4.037 0 1 1 0-8.074 4.037 4.037 0 0 1 0 8.074zm4.043 7.869c0 2.211-1.806 4.018-4.037 4.018-2.23 0-4.037-1.807-4.037-4.018a4.02 4.02 0 0 1 4.037-4.044 4.025 4.025 0 0 1 4.037 4.044zm-4.043 15.936a4.037 4.037 0 1 1 0-8.074 4.037 4.037 0 0 1 0 8.074zm0 11.906a4.037 4.037 0 1 1 0-8.074 4.037 4.037 0 0 1 0 8.074zm0 11.9a4.037 4.037 0 1 1 0-8.075 4.037 4.037 0 0 1 0 8.074zm4.043 7.868c0 2.211-1.806 4.018-4.037 4.018-2.23 0-4.037-1.807-4.037-4.018 0-2.237 1.807-4.07 4.037-4.07 2.225 0 4.037 1.833 4.037 4.07zm-4.043 15.917a4.037 4.037 0 1 1 0-8.074 4.037 4.037 0 0 1 0 8.074zm0 11.9a4.037 4.037 0 1 1 0-8.075 4.037 4.037 0 0 1 0 8.074zm0 11.905a4.037 4.037 0 1 1 0-8.074 4.037 4.037 0 0 1 0 8.074zm0 11.9a4.037 4.037 0 1 1 0-8.075 4.037 4.037 0 0 1 0 8.074zm0 11.905a4.037 4.037 0 1 1 0-8.074 4.037 4.037 0 0 1 0 8.074zm0 11.9a4.037 4.037 0 1 1 0-8.075 4.037 4.037 0 0 1 0 8.074zm4.043 7.842c0 2.263-1.806 4.07-4.037 4.07-2.23 0-4.037-1.807-4.037-4.07 0-2.211 1.807-4.018 4.037-4.018 2.225 0 4.037 1.807 4.037 4.018zm0 11.906c0 2.263-1.806 4.069-4.037 4.069-2.23 0-4.037-1.806-4.037-4.07 0-2.21 1.807-4.017 4.037-4.017 2.225 0 4.037 1.806 4.037 4.018zM147.25 91.54a4.037 4.037 0 1 1 0-8.074 4.037 4.037 0 0 1 0 8.074zm4.037 7.818c0 2.262-1.807 4.069-4.037 4.069-2.231 0-4.038-1.807-4.038-4.07 0-2.21 1.807-4.017 4.038-4.017 2.23 0 4.037 1.806 4.037 4.018zm-4.037 51.672a4.037 4.037 0 1 1 0-8.074 4.037 4.037 0 0 1 0 8.074zm0 11.906a4.037 4.037 0 1 1 0-8.074 4.037 4.037 0 0 1 0 8.074zm0 11.9a4.037 4.037 0 1 1 0-8.075 4.037 4.037 0 0 1 0 8.074zm0 11.88a4.037 4.037 0 1 1 0-8.075 4.037 4.037 0 0 1 0 8.074zm4.037 7.894c0 2.211-1.807 4.043-4.037 4.043-2.231 0-4.038-1.832-4.038-4.043a4.037 4.037 0 1 1 8.075 0zm0 11.873a4.037 4.037 0 1 1-8.075 0c0-2.211 1.807-4.018 4.038-4.018 2.23 0 4.037 1.807 4.037 4.018zm0 11.906a4.037 4.037 0 1 1-8.075 0c0-2.211 1.807-4.018 4.038-4.018 2.23 0 4.037 1.807 4.037 4.018zm0 11.9c0 2.21-1.807 4.043-4.037 4.043-2.231 0-4.038-1.832-4.038-4.044 0-2.211 1.807-4.018 4.038-4.018 2.23 0 4.037 1.813 4.037 4.018zm-4.037 15.942a4.037 4.037 0 1 1 0-8.074 4.037 4.037 0 0 1 0 8.074zm0 11.9a4.037 4.037 0 1 1 0-8.075 4.037 4.037 0 0 1 0 8.074zm0 11.905a4.037 4.037 0 1 1 0-8.074 4.037 4.037 0 0 1 0 8.074zm4.037 7.869c0 2.211-1.807 4.043-4.037 4.043-2.231 0-4.038-1.832-4.038-4.043a4.037 4.037 0 1 1 8.075 0zm-4.037 15.936a4.037 4.037 0 1 1 0-8.074 4.037 4.037 0 0 1 0 8.074zm4.037 7.869c0 2.211-1.807 4.018-4.037 4.018-2.231 0-4.038-1.807-4.038-4.018a4.02 4.02 0 0 1 4.038-4.044 4.02 4.02 0 0 1 4.037 4.044zm-4.037 15.936a4.037 4.037 0 1 1 0-8.074 4.037 4.037 0 0 1 0 8.074zm0 11.906a4.037 4.037 0 1 1 0-8.074 4.037 4.037 0 0 1 0 8.074zm0 11.9a4.037 4.037 0 1 1 0-8.075 4.037 4.037 0 0 1 0 8.074zm4.037 7.868c0 2.211-1.807 4.018-4.037 4.018-2.231 0-4.038-1.807-4.038-4.018 0-2.237 1.807-4.07 4.038-4.07 2.23 0 4.037 1.833 4.037 4.07zm-4.037 15.917a4.037 4.037 0 1 1 0-8.074 4.037 4.037 0 0 1 0 8.074zm0 11.9a4.037 4.037 0 1 1 0-8.075 4.037 4.037 0 0 1 0 8.074zm0 11.905a4.037 4.037 0 1 1 0-8.074 4.037 4.037 0 0 1 0 8.074zm0 11.9a4.037 4.037 0 1 1 0-8.075 4.037 4.037 0 0 1 0 8.074zm0 11.905a4.037 4.037 0 1 1 0-8.074 4.037 4.037 0 0 1 0 8.074zm0 11.9a4.037 4.037 0 1 1 0-8.075 4.037 4.037 0 0 1 0 8.074zm4.037 7.842c0 2.263-1.807 4.07-4.037 4.07-2.231 0-4.038-1.807-4.038-4.07 0-2.211 1.807-4.018 4.038-4.018 2.23 0 4.037 1.807 4.037 4.018zm0 11.906c0 2.263-1.807 4.069-4.037 4.069-2.231 0-4.038-1.806-4.038-4.07 0-2.21 1.807-4.017 4.038-4.017 2.23 0 4.037 1.806 4.037 4.018zm-11.9-345.137c0 2.262-1.806 4.069-4.037 4.069-2.23 0-4.037-1.807-4.037-4.07 0-2.21 1.807-4.017 4.037-4.017 2.231 0 4.037 1.806 4.037 4.018zm-4.037 63.578a4.037 4.037 0 1 1 0-8.074 4.037 4.037 0 0 1 0 8.074zm0 11.9a4.037 4.037 0 1 1 0-8.075 4.037 4.037 0 0 1 0 8.074zm0 11.88a4.037 4.037 0 1 1 0-8.075 4.037 4.037 0 0 1 0 8.074zm4.037 7.894c0 2.211-1.806 4.043-4.037 4.043-2.23 0-4.037-1.832-4.037-4.043a4.037 4.037 0 1 1 8.074 0zm0 11.873a4.037 4.037 0 1 1-8.074 0c0-2.211 1.807-4.018 4.037-4.018 2.231 0 4.037 1.807 4.037 4.018zm0 11.906a4.037 4.037 0 1 1-8.074 0c0-2.211 1.807-4.018 4.037-4.018 2.231 0 4.037 1.807 4.037 4.018zm0 11.9c0 2.21-1.806 4.043-4.037 4.043-2.23 0-4.037-1.832-4.037-4.044 0-2.211 1.807-4.018 4.037-4.018 2.231 0 4.037 1.813 4.037 4.018zm-4.037 15.942a4.037 4.037 0 1 1 0-8.074 4.037 4.037 0 0 1 0 8.074zm0 11.9a4.037 4.037 0 1 1 0-8.075 4.037 4.037 0 0 1 0 8.074zm0 11.905a4.037 4.037 0 1 1 0-8.074 4.037 4.037 0 0 1 0 8.074zm4.037 7.869c0 2.211-1.806 4.043-4.037 4.043-2.23 0-4.037-1.832-4.037-4.043a4.037 4.037 0 1 1 8.074 0zm-4.037 15.936a4.037 4.037 0 1 1 0-8.074 4.037 4.037 0 0 1 0 8.074zm4.037 7.869c0 2.211-1.806 4.018-4.037 4.018-2.23 0-4.037-1.807-4.037-4.018a4.02 4.02 0 0 1 4.037-4.044 4.02 4.02 0 0 1 4.037 4.044zm-4.037 15.936a4.037 4.037 0 1 1 0-8.074 4.037 4.037 0 0 1 0 8.074zm0 11.906a4.037 4.037 0 1 1 0-8.074 4.037 4.037 0 0 1 0 8.074zm0 11.9a4.037 4.037 0 1 1 0-8.075 4.037 4.037 0 0 1 0 8.074zm4.037 7.868c0 2.211-1.806 4.018-4.037 4.018-2.23 0-4.037-1.807-4.037-4.018 0-2.237 1.807-4.07 4.037-4.07 2.231 0 4.037 1.833 4.037 4.07zm-4.037 15.917a4.037 4.037 0 1 1 0-8.074 4.037 4.037 0 0 1 0 8.074zm0 11.9a4.037 4.037 0 1 1 0-8.075 4.037 4.037 0 0 1 0 8.074zm0 11.905a4.037 4.037 0 1 1 0-8.074 4.037 4.037 0 0 1 0 8.074zm0 11.9a4.037 4.037 0 1 1 0-8.075 4.037 4.037 0 0 1 0 8.074zm0 11.905a4.037 4.037 0 1 1 0-8.074 4.037 4.037 0 0 1 0 8.074zm0 11.9a4.037 4.037 0 1 1 0-8.075 4.037 4.037 0 0 1 0 8.074zm4.037 7.842c0 2.263-1.806 4.07-4.037 4.07-2.23 0-4.037-1.807-4.037-4.07 0-2.211 1.807-4.018 4.037-4.018 2.231 0 4.037 1.807 4.037 4.018zm0 11.906c0 2.263-1.806 4.069-4.037 4.069-2.23 0-4.037-1.806-4.037-4.07 0-2.21 1.807-4.017 4.037-4.017 2.231 0 4.037 1.806 4.037 4.018zM123.45 162.937a4.037 4.037 0 1 1 0-8.074 4.037 4.037 0 0 1 0 8.074zm0 11.9a4.037 4.037 0 1 1 0-8.075 4.037 4.037 0 0 1 0 8.074zm0 11.88a4.037 4.037 0 1 1 0-8.075 4.037 4.037 0 0 1 0 8.074zm4.037 7.894c0 2.211-1.806 4.043-4.037 4.043-2.23 0-4.037-1.832-4.037-4.043a4.037 4.037 0 1 1 8.074 0zm0 11.873a4.037 4.037 0 1 1-8.074 0c0-2.211 1.806-4.018 4.037-4.018 2.23 0 4.037 1.807 4.037 4.018zm0 11.906a4.037 4.037 0 1 1-8.074 0c0-2.211 1.806-4.018 4.037-4.018 2.23 0 4.037 1.807 4.037 4.018zm0 11.9c0 2.21-1.806 4.043-4.037 4.043-2.23 0-4.037-1.832-4.037-4.044 0-2.211 1.806-4.018 4.037-4.018 2.23 0 4.037 1.813 4.037 4.018zm-4.037 15.942a4.037 4.037 0 1 1 0-8.074 4.037 4.037 0 0 1 0 8.074zm0 11.9a4.037 4.037 0 1 1 0-8.075 4.037 4.037 0 0 1 0 8.074zm0 11.905a4.037 4.037 0 1 1 0-8.074 4.037 4.037 0 0 1 0 8.074zm4.037 7.869c0 2.211-1.806 4.043-4.037 4.043-2.23 0-4.037-1.832-4.037-4.043a4.037 4.037 0 1 1 8.074 0zm-4.037 15.936a4.037 4.037 0 1 1 0-8.074 4.037 4.037 0 0 1 0 8.074zm4.037 7.869c0 2.211-1.806 4.018-4.037 4.018-2.23 0-4.037-1.807-4.037-4.018a4.02 4.02 0 0 1 4.037-4.044 4.02 4.02 0 0 1 4.037 4.044zm-4.037 15.936a4.037 4.037 0 1 1 0-8.074 4.037 4.037 0 0 1 0 8.074zm0 11.906a4.037 4.037 0 1 1 0-8.074 4.037 4.037 0 0 1 0 8.074zm0 11.9a4.037 4.037 0 1 1 0-8.075 4.037 4.037 0 0 1 0 8.074zm4.037 7.868c0 2.211-1.806 4.018-4.037 4.018-2.23 0-4.037-1.807-4.037-4.018 0-2.237 1.806-4.07 4.037-4.07 2.23 0 4.037 1.833 4.037 4.07zm-4.037 15.917a4.037 4.037 0 1 1 0-8.074 4.037 4.037 0 0 1 0 8.074zm0 11.9a4.037 4.037 0 1 1 0-8.075 4.037 4.037 0 0 1 0 8.074zm0 11.905a4.037 4.037 0 1 1 0-8.074 4.037 4.037 0 0 1 0 8.074zm0 11.9a4.037 4.037 0 1 1 0-8.075 4.037 4.037 0 0 1 0 8.074zm0 11.905a4.037 4.037 0 1 1 0-8.074 4.037 4.037 0 0 1 0 8.074zm0 11.9a4.037 4.037 0 1 1 0-8.075 4.037 4.037 0 0 1 0 8.074zm4.037 7.842c0 2.263-1.806 4.07-4.037 4.07-2.23 0-4.037-1.807-4.037-4.07 0-2.211 1.806-4.018 4.037-4.018 2.23 0 4.037 1.807 4.037 4.018zm0 11.906c0 2.263-1.806 4.069-4.037 4.069-2.23 0-4.037-1.806-4.037-4.07 0-2.21 1.806-4.017 4.037-4.017 2.23 0 4.037 1.806 4.037 4.018zm-15.936-281.559a4.037 4.037 0 1 1 0-8.074 4.037 4.037 0 0 1 0 8.074zm0 11.9a4.037 4.037 0 1 1 0-8.075 4.037 4.037 0 0 1 0 8.074zm0 11.88a4.037 4.037 0 1 1 0-8.075 4.037 4.037 0 0 1 0 8.074zm4.037 7.894c0 2.211-1.807 4.043-4.037 4.043-2.231 0-4.037-1.832-4.037-4.043a4.037 4.037 0 1 1 8.074 0zm0 11.873a4.037 4.037 0 1 1-8.074 0c0-2.211 1.806-4.018 4.037-4.018 2.23 0 4.037 1.807 4.037 4.018zm0 11.906a4.037 4.037 0 1 1-8.074 0c0-2.211 1.806-4.018 4.037-4.018 2.23 0 4.037 1.807 4.037 4.018zm0 11.9c0 2.21-1.807 4.043-4.037 4.043-2.231 0-4.037-1.832-4.037-4.044 0-2.211 1.806-4.018 4.037-4.018 2.23 0 4.037 1.813 4.037 4.018zm-4.037 15.942a4.037 4.037 0 1 1 0-8.074 4.037 4.037 0 0 1 0 8.074zm0 11.9a4.037 4.037 0 1 1 0-8.075 4.037 4.037 0 0 1 0 8.074zm0 11.905a4.037 4.037 0 1 1 0-8.074 4.037 4.037 0 0 1 0 8.074zm4.037 7.869c0 2.211-1.807 4.043-4.037 4.043-2.231 0-4.037-1.832-4.037-4.043a4.037 4.037 0 1 1 8.074 0zm-4.037 15.936a4.037 4.037 0 1 1 0-8.074 4.037 4.037 0 0 1 0 8.074zm4.037 7.869c0 2.211-1.807 4.018-4.037 4.018-2.231 0-4.037-1.807-4.037-4.018a4.02 4.02 0 0 1 4.037-4.044 4.02 4.02 0 0 1 4.037 4.044zm-4.037 15.936a4.037 4.037 0 1 1 0-8.074 4.037 4.037 0 0 1 0 8.074zm0 11.906a4.037 4.037 0 1 1 0-8.074 4.037 4.037 0 0 1 0 8.074zm0 11.9a4.037 4.037 0 1 1 0-8.075 4.037 4.037 0 0 1 0 8.074zm4.037 7.868c0 2.211-1.807 4.018-4.037 4.018-2.231 0-4.037-1.807-4.037-4.018 0-2.237 1.806-4.07 4.037-4.07 2.23 0 4.037 1.833 4.037 4.07zm-4.037 15.917a4.037 4.037 0 1 1 0-8.074 4.037 4.037 0 0 1 0 8.074zm0 11.9a4.037 4.037 0 1 1 0-8.075 4.037 4.037 0 0 1 0 8.074zm0 11.905a4.037 4.037 0 1 1 0-8.074 4.037 4.037 0 0 1 0 8.074zm0 11.9a4.037 4.037 0 1 1 0-8.075 4.037 4.037 0 0 1 0 8.074zm0 11.905a4.037 4.037 0 1 1 0-8.074 4.037 4.037 0 0 1 0 8.074zm0 11.9a4.037 4.037 0 1 1 0-8.075 4.037 4.037 0 0 1 0 8.074zm4.037 7.842c0 2.263-1.807 4.07-4.037 4.07-2.231 0-4.037-1.807-4.037-4.07 0-2.211 1.806-4.018 4.037-4.018 2.23 0 4.037 1.807 4.037 4.018zm0 11.906c0 2.263-1.807 4.069-4.037 4.069-2.231 0-4.037-1.806-4.037-4.07 0-2.21 1.806-4.017 4.037-4.017 2.23 0 4.037 1.806 4.037 4.018zM99.65 174.836a4.037 4.037 0 1 1 0-8.074 4.037 4.037 0 0 1 0 8.074zm0 11.88a4.037 4.037 0 1 1 0-8.074 4.037 4.037 0 0 1 0 8.074zm4.038 7.895c0 2.211-1.807 4.043-4.038 4.043-2.23 0-4.037-1.832-4.037-4.043a4.037 4.037 0 1 1 8.075 0zm0 11.873a4.037 4.037 0 1 1-8.075 0c0-2.211 1.807-4.018 4.037-4.018 2.225 0 4.038 1.807 4.038 4.018zm0 11.906a4.037 4.037 0 1 1-8.075 0c0-2.211 1.807-4.018 4.037-4.018 2.225 0 4.038 1.807 4.038 4.018zm0 11.9c0 2.21-1.807 4.043-4.038 4.043-2.23 0-4.037-1.832-4.037-4.044 0-2.211 1.807-4.018 4.037-4.018 2.225 0 4.038 1.813 4.038 4.018zm-4.038 15.942a4.037 4.037 0 1 1 0-8.074 4.037 4.037 0 0 1 0 8.074zm0 11.9a4.037 4.037 0 1 1 0-8.075 4.037 4.037 0 0 1 0 8.074zm0 11.905a4.037 4.037 0 1 1 0-8.074 4.037 4.037 0 0 1 0 8.074zm4.038 7.869c0 2.211-1.807 4.043-4.038 4.043-2.23 0-4.037-1.832-4.037-4.043a4.037 4.037 0 1 1 8.075 0zm-4.038 15.936a4.037 4.037 0 1 1 0-8.074 4.037 4.037 0 0 1 0 8.074zm0 23.805a4.037 4.037 0 1 1 0-8.074 4.037 4.037 0 0 1 0 8.074zm0 11.906a4.037 4.037 0 1 1 0-8.074 4.037 4.037 0 0 1 0 8.074zm0 11.9a4.037 4.037 0 1 1 0-8.075 4.037 4.037 0 0 1 0 8.074zm4.038 7.868c0 2.211-1.807 4.018-4.038 4.018-2.23 0-4.037-1.807-4.037-4.018 0-2.237 1.807-4.07 4.037-4.07 2.225 0 4.038 1.833 4.038 4.07zm-4.038 15.917a4.037 4.037 0 1 1 0-8.074 4.037 4.037 0 0 1 0 8.074zm0 11.9a4.037 4.037 0 1 1 0-8.075 4.037 4.037 0 0 1 0 8.074zm0 11.905a4.037 4.037 0 1 1 0-8.074 4.037 4.037 0 0 1 0 8.074zm0 11.9a4.037 4.037 0 1 1 0-8.075 4.037 4.037 0 0 1 0 8.074zm0 11.905a4.037 4.037 0 1 1 0-8.074 4.037 4.037 0 0 1 0 8.074zm0 11.9a4.037 4.037 0 1 1 0-8.075 4.037 4.037 0 0 1 0 8.074zm4.038 7.842c0 2.263-1.807 4.07-4.038 4.07-2.23 0-4.037-1.807-4.037-4.07 0-2.211 1.807-4.018 4.037-4.018 2.225 0 4.038 1.807 4.038 4.018zm0 11.906c0 2.263-1.807 4.069-4.038 4.069-2.23 0-4.037-1.806-4.037-4.07 0-2.21 1.807-4.017 4.037-4.017 2.225 0 4.038 1.806 4.038 4.018zM87.746 151.03a4.037 4.037 0 1 1 0-8.074 4.037 4.037 0 0 1 0 8.074zm0 11.906a4.037 4.037 0 1 1 0-8.074 4.037 4.037 0 0 1 0 8.074zm0 11.9a4.037 4.037 0 1 1 0-8.075 4.037 4.037 0 0 1 0 8.074zm0 11.88a4.037 4.037 0 1 1 0-8.075 4.037 4.037 0 0 1 0 8.074zm4.037 7.894c0 2.211-1.807 4.043-4.037 4.043-2.231 0-4.037-1.832-4.037-4.043a4.037 4.037 0 1 1 8.074 0zm0 11.873a4.037 4.037 0 1 1-8.074 0c0-2.211 1.806-4.018 4.037-4.018 2.23 0 4.037 1.807 4.037 4.018zm0 11.906a4.037 4.037 0 1 1-8.074 0c0-2.211 1.806-4.018 4.037-4.018 2.23 0 4.037 1.807 4.037 4.018zm0 11.9c0 2.21-1.807 4.043-4.037 4.043-2.231 0-4.037-1.832-4.037-4.044 0-2.211 1.806-4.018 4.037-4.018 2.23 0 4.037 1.813 4.037 4.018zm-4.037 15.942a4.037 4.037 0 1 1 0-8.074 4.037 4.037 0 0 1 0 8.074zm0 11.9a4.037 4.037 0 1 1 0-8.075 4.037 4.037 0 0 1 0 8.074zm0 11.905a4.037 4.037 0 1 1 0-8.074 4.037 4.037 0 0 1 0 8.074zm4.037 7.869c0 2.211-1.807 4.043-4.037 4.043-2.231 0-4.037-1.832-4.037-4.043a4.037 4.037 0 1 1 8.074 0zm-4.037 15.936a4.037 4.037 0 1 1 0-8.074 4.037 4.037 0 0 1 0 8.074zm0 23.805a4.037 4.037 0 1 1 0-8.074 4.037 4.037 0 0 1 0 8.074zm0 11.906a4.037 4.037 0 1 1 0-8.074 4.037 4.037 0 0 1 0 8.074zm0 11.9a4.037 4.037 0 1 1 0-8.075 4.037 4.037 0 0 1 0 8.074zm4.037 7.868c0 2.211-1.807 4.018-4.037 4.018-2.231 0-4.037-1.807-4.037-4.018 0-2.237 1.806-4.07 4.037-4.07 2.23 0 4.037 1.833 4.037 4.07zm-4.037 15.917a4.037 4.037 0 1 1 0-8.074 4.037 4.037 0 0 1 0 8.074zm0 11.9a4.037 4.037 0 1 1 0-8.075 4.037 4.037 0 0 1 0 8.074zm0 11.905a4.037 4.037 0 1 1 0-8.074 4.037 4.037 0 0 1 0 8.074zm0 11.9a4.037 4.037 0 1 1 0-8.075 4.037 4.037 0 0 1 0 8.074zm0 11.905a4.037 4.037 0 1 1 0-8.074 4.037 4.037 0 0 1 0 8.074zm0 11.9a4.037 4.037 0 1 1 0-8.075 4.037 4.037 0 0 1 0 8.074zm4.037 7.842c0 2.263-1.807 4.07-4.037 4.07-2.231 0-4.037-1.807-4.037-4.07 0-2.211 1.806-4.018 4.037-4.018 2.23 0 4.037 1.807 4.037 4.018zm0 11.906c0 2.263-1.807 4.069-4.037 4.069-2.231 0-4.037-1.806-4.037-4.07 0-2.21 1.806-4.017 4.037-4.017 2.23 0 4.037 1.806 4.037 4.018zM75.846 151.03a4.037 4.037 0 1 1 0-8.074 4.037 4.037 0 0 1 0 8.074zm0 11.906a4.037 4.037 0 1 1 0-8.074 4.037 4.037 0 0 1 0 8.074zm0 11.9a4.037 4.037 0 1 1 0-8.075 4.037 4.037 0 0 1 0 8.074zm0 11.88a4.037 4.037 0 1 1 0-8.075 4.037 4.037 0 0 1 0 8.074zm4.038 7.894c0 2.211-1.807 4.043-4.038 4.043-2.23 0-4.037-1.832-4.037-4.043a4.037 4.037 0 1 1 8.075 0zm0 11.873a4.037 4.037 0 1 1-8.075 0c0-2.211 1.807-4.018 4.037-4.018 2.231 0 4.038 1.807 4.038 4.018zm0 11.906a4.037 4.037 0 1 1-8.075 0c0-2.211 1.807-4.018 4.037-4.018 2.231 0 4.038 1.807 4.038 4.018zm0 11.9c0 2.21-1.807 4.043-4.038 4.043-2.23 0-4.037-1.832-4.037-4.044 0-2.211 1.807-4.018 4.037-4.018 2.231 0 4.038 1.813 4.038 4.018zm-4.038 15.942a4.037 4.037 0 1 1 0-8.074 4.037 4.037 0 0 1 0 8.074zm0 11.9a4.037 4.037 0 1 1 0-8.075 4.037 4.037 0 0 1 0 8.074zm0 11.905a4.037 4.037 0 1 1 0-8.074 4.037 4.037 0 0 1 0 8.074zm4.038 7.869c0 2.211-1.807 4.043-4.038 4.043-2.23 0-4.037-1.832-4.037-4.043a4.037 4.037 0 1 1 8.075 0zm-4.038 15.936a4.037 4.037 0 1 1 0-8.074 4.037 4.037 0 0 1 0 8.074zm4.038 55.479c0 2.211-1.807 4.018-4.038 4.018-2.23 0-4.037-1.807-4.037-4.018 0-2.237 1.807-4.07 4.037-4.07 2.231 0 4.038 1.833 4.038 4.07zm-4.038 15.917a4.037 4.037 0 1 1 0-8.074 4.037 4.037 0 0 1 0 8.074zm0 11.9a4.037 4.037 0 1 1 0-8.075 4.037 4.037 0 0 1 0 8.074zm0 11.905a4.037 4.037 0 1 1 0-8.074 4.037 4.037 0 0 1 0 8.074zm0 11.9a4.037 4.037 0 1 1 0-8.075 4.037 4.037 0 0 1 0 8.074zm0 11.905a4.037 4.037 0 1 1 0-8.074 4.037 4.037 0 0 1 0 8.074zm0 11.9a4.037 4.037 0 1 1 0-8.075 4.037 4.037 0 0 1 0 8.074zm4.038 7.842c0 2.263-1.807 4.07-4.038 4.07-2.23 0-4.037-1.807-4.037-4.07 0-2.211 1.807-4.018 4.037-4.018 2.231 0 4.038 1.807 4.038 4.018zm0 11.906c0 2.263-1.807 4.069-4.038 4.069-2.23 0-4.037-1.806-4.037-4.07 0-2.21 1.807-4.017 4.037-4.017 2.231 0 4.038 1.806 4.038 4.018zM63.947 151.03a4.037 4.037 0 1 1 0-8.074 4.037 4.037 0 0 1 0 8.074zm0 11.906a4.037 4.037 0 1 1 0-8.074 4.037 4.037 0 0 1 0 8.074zm0 11.9a4.037 4.037 0 1 1 0-8.075 4.037 4.037 0 0 1 0 8.074zm0 11.88a4.037 4.037 0 1 1 0-8.075 4.037 4.037 0 0 1 0 8.074zm4.037 7.894c0 2.211-1.806 4.043-4.037 4.043-2.23 0-4.037-1.832-4.037-4.043a4.037 4.037 0 1 1 8.074 0zm0 11.873a4.037 4.037 0 1 1-8.074 0c0-2.211 1.806-4.018 4.037-4.018 2.23 0 4.037 1.807 4.037 4.018zm0 11.906a4.037 4.037 0 1 1-8.074 0c0-2.211 1.806-4.018 4.037-4.018 2.23 0 4.037 1.807 4.037 4.018zm0 11.9c0 2.21-1.806 4.043-4.037 4.043-2.23 0-4.037-1.832-4.037-4.044 0-2.211 1.806-4.018 4.037-4.018 2.23 0 4.037 1.813 4.037 4.018zm-4.037 15.942a4.037 4.037 0 1 1 0-8.074 4.037 4.037 0 0 1 0 8.074zm0 11.9a4.037 4.037 0 1 1 0-8.075 4.037 4.037 0 0 1 0 8.074zm0 11.905a4.037 4.037 0 1 1 0-8.074 4.037 4.037 0 0 1 0 8.074zm4.037 7.869c0 2.211-1.806 4.043-4.037 4.043-2.23 0-4.037-1.832-4.037-4.043a4.037 4.037 0 1 1 8.074 0zm-4.037 15.936a4.037 4.037 0 1 1 0-8.074 4.037 4.037 0 0 1 0 8.074zm0 71.396a4.037 4.037 0 1 1 0-8.074 4.037 4.037 0 0 1 0 8.074zm0 11.9a4.037 4.037 0 1 1 0-8.075 4.037 4.037 0 0 1 0 8.074zm0 11.905a4.037 4.037 0 1 1 0-8.074 4.037 4.037 0 0 1 0 8.074zm0 11.9a4.037 4.037 0 1 1 0-8.075 4.037 4.037 0 0 1 0 8.074zm0 11.905a4.037 4.037 0 1 1 0-8.074 4.037 4.037 0 0 1 0 8.074zm0 11.9a4.037 4.037 0 1 1 0-8.075 4.037 4.037 0 0 1 0 8.074zm4.037 7.842c0 2.263-1.806 4.07-4.037 4.07-2.23 0-4.037-1.807-4.037-4.07 0-2.211 1.806-4.018 4.037-4.018 2.23 0 4.037 1.807 4.037 4.018zm0 11.906c0 2.263-1.806 4.069-4.037 4.069-2.23 0-4.037-1.806-4.037-4.07 0-2.21 1.806-4.017 4.037-4.017 2.23 0 4.037 1.806 4.037 4.018zM52.048 151.03a4.037 4.037 0 1 1 0-8.074 4.037 4.037 0 0 1 0 8.074zm0 11.906a4.037 4.037 0 1 1 0-8.074 4.037 4.037 0 0 1 0 8.074zm0 11.9a4.037 4.037 0 1 1 0-8.075 4.037 4.037 0 0 1 0 8.074zm0 11.88a4.037 4.037 0 1 1 0-8.075 4.037 4.037 0 0 1 0 8.074zm4.037 7.894c0 2.211-1.806 4.043-4.037 4.043-2.23 0-4.037-1.832-4.037-4.043a4.037 4.037 0 1 1 8.074 0zm0 11.873a4.037 4.037 0 1 1-8.074 0c0-2.211 1.806-4.018 4.037-4.018 2.23 0 4.037 1.807 4.037 4.018zm0 23.805c0 2.212-1.806 4.044-4.037 4.044-2.23 0-4.037-1.832-4.037-4.044 0-2.211 1.806-4.018 4.037-4.018 2.23 0 4.037 1.813 4.037 4.018zm-4.037 15.943a4.037 4.037 0 1 1 0-8.074 4.037 4.037 0 0 1 0 8.074zm0 11.9a4.037 4.037 0 1 1 0-8.075 4.037 4.037 0 0 1 0 8.074zm0 11.905a4.037 4.037 0 1 1 0-8.074 4.037 4.037 0 0 1 0 8.074zm4.037 7.869c0 2.211-1.806 4.043-4.037 4.043-2.23 0-4.037-1.832-4.037-4.043a4.037 4.037 0 1 1 8.074 0zm-4.037 99.231a4.037 4.037 0 1 1 0-8.074 4.037 4.037 0 0 1 0 8.074zm0 23.805a4.037 4.037 0 1 1 0-8.074 4.037 4.037 0 0 1 0 8.074zm0 11.906a4.037 4.037 0 1 1 0-8.074 4.037 4.037 0 0 1 0 8.074zm0 11.9a4.037 4.037 0 1 1 0-8.075 4.037 4.037 0 0 1 0 8.074zm4.037 7.842c0 2.263-1.806 4.07-4.037 4.07-2.23 0-4.037-1.807-4.037-4.07 0-2.211 1.806-4.018 4.037-4.018 2.23 0 4.037 1.807 4.037 4.018zm0 11.906c0 2.263-1.806 4.069-4.037 4.069-2.23 0-4.037-1.806-4.037-4.07 0-2.21 1.806-4.017 4.037-4.017 2.23 0 4.037 1.806 4.037 4.018zM40.142 162.937a4.037 4.037 0 1 1 0-8.074 4.037 4.037 0 0 1 0 8.074zm0 11.9a4.037 4.037 0 1 1 0-8.075 4.037 4.037 0 0 1 0 8.074zm0 11.88a4.037 4.037 0 1 1 0-8.075 4.037 4.037 0 0 1 0 8.074zm4.037 7.894c0 2.211-1.806 4.043-4.037 4.043-2.23 0-4.037-1.832-4.037-4.043a4.037 4.037 0 1 1 8.074 0zm0 11.873a4.037 4.037 0 1 1-8.074 0c0-2.211 1.806-4.018 4.037-4.018 2.23 0 4.037 1.807 4.037 4.018zm-4.037 39.748a4.037 4.037 0 1 1 0-8.074 4.037 4.037 0 0 1 0 8.074zm0 11.9a4.037 4.037 0 1 1 0-8.075 4.037 4.037 0 0 1 0 8.074zm0 11.905a4.037 4.037 0 1 1 0-8.074 4.037 4.037 0 0 1 0 8.074zm0 154.71a4.037 4.037 0 1 1 0-8.074 4.037 4.037 0 0 1 0 8.074zm4.037 7.843c0 2.263-1.806 4.07-4.037 4.07-2.23 0-4.037-1.807-4.037-4.07 0-2.211 1.806-4.018 4.037-4.018 2.23 0 4.037 1.807 4.037 4.018zm0 11.906c0 2.263-1.806 4.069-4.037 4.069-2.23 0-4.037-1.806-4.037-4.07 0-2.21 1.806-4.017 4.037-4.017 2.23 0 4.037 1.806 4.037 4.018zM28.243 162.937a4.037 4.037 0 1 1 0-8.074 4.037 4.037 0 0 1 0 8.074zm0 11.9a4.037 4.037 0 1 1 0-8.075 4.037 4.037 0 0 1 0 8.074zm4.037 19.774c0 2.211-1.806 4.043-4.037 4.043-2.23 0-4.037-1.832-4.037-4.043a4.037 4.037 0 1 1 8.074 0zm-4.037 63.52a4.037 4.037 0 1 1 0-8.074 4.037 4.037 0 0 1 0 8.074zm0 11.906a4.037 4.037 0 1 1 0-8.074 4.037 4.037 0 0 1 0 8.074zm0 154.71a4.037 4.037 0 1 1 0-8.074 4.037 4.037 0 0 1 0 8.074zm4.037 7.843c0 2.263-1.806 4.07-4.037 4.07-2.23 0-4.037-1.807-4.037-4.07 0-2.211 1.806-4.018 4.037-4.018 2.23 0 4.037 1.807 4.037 4.018zm-11.9-237.98c0 2.212-1.806 4.044-4.036 4.044-2.231 0-4.038-1.832-4.038-4.043a4.037 4.037 0 1 1 8.075 0zm-4.036 230.137a4.037 4.037 0 1 1 0-8.074 4.037 4.037 0 0 1 0 8.074zm4.037 7.843c0 2.263-1.807 4.07-4.037 4.07-2.231 0-4.038-1.807-4.038-4.07 0-2.211 1.807-4.018 4.038-4.018 2.23 0 4.037 1.807 4.037 4.018zm-11.9 0c0 2.263-1.806 4.07-4.037 4.07-2.23 0-4.037-1.807-4.037-4.07 0-2.211 1.807-4.018 4.037-4.018 2.231 0 4.037 1.807 4.037 4.018zm214.207 23.805a4.037 4.037 0 1 1-8.074 0c0-2.211 1.806-4.018 4.037-4.018 2.23 0 4.037 1.807 4.037 4.018zm-11.9 0a4.037 4.037 0 0 1-8.074 0c0-2.211 1.807-4.018 4.037-4.018a4.028 4.028 0 0 1 4.038 4.018zm-11.899 0a4.037 4.037 0 1 1-8.074 0c0-2.211 1.806-4.018 4.037-4.018 2.23 0 4.037 1.807 4.037 4.018zm-4.037 15.943a4.037 4.037 0 1 1 0-8.074 4.037 4.037 0 0 1 0 8.074zm-7.862-15.943a4.037 4.037 0 1 1-8.074 0c0-2.211 1.806-4.018 4.037-4.018 2.224 0 4.037 1.807 4.037 4.018zm-4.037 15.943a4.037 4.037 0 1 1 0-8.074 4.037 4.037 0 0 1 0 8.074zm4.037 7.862c0 2.211-1.806 4.044-4.037 4.044-2.23 0-4.037-1.833-4.037-4.044 0-2.211 1.806-4.044 4.037-4.044 2.224 0 4.037 1.839 4.037 4.044zm-11.9-23.805a4.037 4.037 0 1 1-8.074 0c0-2.211 1.807-4.018 4.038-4.018 2.224 0 4.037 1.807 4.037 4.018zm-4.043 15.943a4.037 4.037 0 1 1 0-8.074 4.037 4.037 0 0 1 0 8.074zm4.044 7.862c0 2.211-1.807 4.044-4.037 4.044-2.231 0-4.038-1.833-4.038-4.044 0-2.211 1.807-4.044 4.038-4.044 2.224 0 4.037 1.839 4.037 4.044zm-11.9-23.805a4.037 4.037 0 1 1-8.074 0c0-2.211 1.807-4.018 4.037-4.018 2.225 0 4.037 1.807 4.037 4.018zm-4.043 15.943a4.037 4.037 0 1 1 0-8.074 4.037 4.037 0 0 1 0 8.074zm4.043 7.862c0 2.211-1.806 4.044-4.037 4.044-2.23 0-4.037-1.833-4.037-4.044 0-2.211 1.807-4.044 4.037-4.044 2.225 0 4.037 1.839 4.037 4.044zm0 11.906a4.037 4.037 0 1 1-8.074 0c0-2.212 1.807-4.018 4.037-4.018 2.225 0 4.037 1.806 4.037 4.018zm-11.905-35.711a4.037 4.037 0 1 1-8.075 0c0-2.211 1.807-4.018 4.038-4.018 2.23 0 4.037 1.807 4.037 4.018zm-4.037 15.943a4.037 4.037 0 1 1 0-8.074 4.037 4.037 0 0 1 0 8.074zm4.037 7.862c0 2.211-1.807 4.044-4.037 4.044-2.231 0-4.038-1.833-4.038-4.044 0-2.211 1.807-4.044 4.038-4.044 2.23 0 4.037 1.839 4.037 4.044zm0 11.906a4.037 4.037 0 1 1-8.075 0c0-2.212 1.807-4.018 4.038-4.018 2.23 0 4.037 1.806 4.037 4.018zm-11.9-35.711a4.037 4.037 0 1 1-8.074 0c0-2.211 1.807-4.018 4.037-4.018 2.231 0 4.037 1.807 4.037 4.018zm-4.037 15.943a4.037 4.037 0 1 1 0-8.074 4.037 4.037 0 0 1 0 8.074zm4.037 7.862c0 2.211-1.806 4.044-4.037 4.044-2.23 0-4.037-1.833-4.037-4.044 0-2.211 1.807-4.044 4.037-4.044 2.231 0 4.037 1.839 4.037 4.044zm0 11.906a4.037 4.037 0 1 1-8.074 0c0-2.212 1.807-4.018 4.037-4.018 2.231 0 4.037 1.806 4.037 4.018zm0 11.899a4.037 4.037 0 1 1-8.074 0c0-2.211 1.807-4.018 4.037-4.018 2.231 0 4.037 1.813 4.037 4.018zm-11.899-47.61a4.037 4.037 0 1 1-8.074 0c0-2.211 1.806-4.018 4.037-4.018 2.23 0 4.037 1.807 4.037 4.018zm-4.037 15.943a4.037 4.037 0 1 1 0-8.074 4.037 4.037 0 0 1 0 8.074zm4.037 7.862c0 2.211-1.806 4.044-4.037 4.044-2.23 0-4.037-1.833-4.037-4.044 0-2.211 1.806-4.044 4.037-4.044 2.23 0 4.037 1.839 4.037 4.044zm0 11.906a4.037 4.037 0 1 1-8.074 0c0-2.212 1.806-4.018 4.037-4.018 2.23 0 4.037 1.806 4.037 4.018zm0 11.899a4.037 4.037 0 1 1-8.074 0c0-2.211 1.806-4.018 4.037-4.018 2.23 0 4.037 1.813 4.037 4.018zm-11.9-47.61a4.037 4.037 0 1 1-8.073 0c0-2.211 1.806-4.018 4.037-4.018 2.23 0 4.037 1.807 4.037 4.018zm-4.036 15.943a4.037 4.037 0 1 1 0-8.074 4.037 4.037 0 0 1 0 8.074zm4.037 7.862c0 2.211-1.807 4.044-4.037 4.044-2.231 0-4.037-1.833-4.037-4.044 0-2.211 1.806-4.044 4.037-4.044 2.23 0 4.037 1.839 4.037 4.044zm0 11.906a4.037 4.037 0 1 1-8.074 0c0-2.212 1.806-4.018 4.037-4.018 2.23 0 4.037 1.806 4.037 4.018zm0 11.899a4.037 4.037 0 1 1-8.074 0c0-2.211 1.806-4.018 4.037-4.018 2.23 0 4.037 1.813 4.037 4.018zm-11.9-47.61a4.037 4.037 0 1 1-8.074 0c0-2.211 1.807-4.018 4.037-4.018 2.225 0 4.038 1.807 4.038 4.018zm-4.037 15.943a4.037 4.037 0 1 1 0-8.074 4.037 4.037 0 0 1 0 8.074zm4.038 7.862c0 2.211-1.807 4.044-4.038 4.044-2.23 0-4.037-1.833-4.037-4.044 0-2.211 1.807-4.044 4.037-4.044 2.225 0 4.038 1.839 4.038 4.044zm0 11.906a4.037 4.037 0 1 1-8.075 0c0-2.212 1.807-4.018 4.037-4.018 2.225 0 4.038 1.806 4.038 4.018zm0 11.899a4.037 4.037 0 1 1-8.075 0c0-2.211 1.807-4.018 4.037-4.018 2.225 0 4.038 1.813 4.038 4.018zm0 11.88c0 2.263-1.807 4.07-4.038 4.07-2.23 0-4.037-1.807-4.037-4.07 0-2.211 1.807-4.018 4.037-4.018 2.225 0 4.038 1.807 4.038 4.018zm-11.906-59.49a4.037 4.037 0 1 1-8.074 0c0-2.211 1.806-4.018 4.037-4.018 2.23 0 4.037 1.807 4.037 4.018zm-4.037 15.943a4.037 4.037 0 1 1 0-8.074 4.037 4.037 0 0 1 0 8.074zm4.037 7.862c0 2.211-1.807 4.044-4.037 4.044-2.231 0-4.037-1.833-4.037-4.044 0-2.211 1.806-4.044 4.037-4.044 2.23 0 4.037 1.839 4.037 4.044zm0 11.906a4.037 4.037 0 1 1-8.074 0c0-2.212 1.806-4.018 4.037-4.018 2.23 0 4.037 1.806 4.037 4.018zm0 11.899a4.037 4.037 0 1 1-8.074 0c0-2.211 1.806-4.018 4.037-4.018 2.23 0 4.037 1.813 4.037 4.018zm0 11.88c0 2.263-1.807 4.07-4.037 4.07-2.231 0-4.037-1.807-4.037-4.07 0-2.211 1.806-4.018 4.037-4.018 2.23 0 4.037 1.807 4.037 4.018zm-11.9-59.49a4.037 4.037 0 1 1-8.074 0c0-2.211 1.807-4.018 4.037-4.018 2.231 0 4.038 1.807 4.038 4.018zm-4.037 15.943a4.037 4.037 0 1 1 0-8.074 4.037 4.037 0 0 1 0 8.074zm4.038 7.862c0 2.211-1.807 4.044-4.038 4.044-2.23 0-4.037-1.833-4.037-4.044 0-2.211 1.807-4.044 4.037-4.044 2.231 0 4.038 1.839 4.038 4.044zm0 11.906a4.037 4.037 0 1 1-8.075 0c0-2.212 1.807-4.018 4.037-4.018 2.231 0 4.038 1.806 4.038 4.018zm0 11.899a4.037 4.037 0 1 1-8.075 0c0-2.211 1.807-4.018 4.037-4.018 2.231 0 4.038 1.813 4.038 4.018zm-4.038 27.849a4.037 4.037 0 1 1 0-8.075 4.037 4.037 0 0 1 0 8.075zm-7.862-75.459a4.037 4.037 0 1 1-8.074 0c0-2.211 1.806-4.018 4.037-4.018 2.23 0 4.037 1.807 4.037 4.018zm-4.037 15.943a4.037 4.037 0 1 1 0-8.074 4.037 4.037 0 0 1 0 8.074zm4.037 7.862c0 2.211-1.806 4.044-4.037 4.044-2.23 0-4.037-1.833-4.037-4.044 0-2.211 1.806-4.044 4.037-4.044 2.23 0 4.037 1.839 4.037 4.044zm0 11.906a4.037 4.037 0 1 1-8.074 0c0-2.212 1.806-4.018 4.037-4.018 2.23 0 4.037 1.806 4.037 4.018zm0 11.899a4.037 4.037 0 1 1-8.074 0c0-2.211 1.806-4.018 4.037-4.018 2.23 0 4.037 1.813 4.037 4.018zm0 11.88c0 2.263-1.806 4.07-4.037 4.07-2.23 0-4.037-1.807-4.037-4.07 0-2.211 1.806-4.018 4.037-4.018 2.23 0 4.037 1.807 4.037 4.018zm-11.899-59.49a4.037 4.037 0 1 1-8.074 0c0-2.211 1.806-4.018 4.037-4.018 2.23 0 4.037 1.807 4.037 4.018zm-4.037 15.943a4.037 4.037 0 1 1 0-8.074 4.037 4.037 0 0 1 0 8.074zm4.037 7.862c0 2.211-1.806 4.044-4.037 4.044-2.23 0-4.037-1.833-4.037-4.044 0-2.211 1.806-4.044 4.037-4.044 2.23 0 4.037 1.839 4.037 4.044zm0 11.906a4.037 4.037 0 1 1-8.074 0c0-2.212 1.806-4.018 4.037-4.018 2.23 0 4.037 1.806 4.037 4.018zm0 23.779c0 2.263-1.806 4.07-4.037 4.07-2.23 0-4.037-1.807-4.037-4.07 0-2.211 1.806-4.018 4.037-4.018 2.23 0 4.037 1.807 4.037 4.018zm-11.906-59.49a4.037 4.037 0 1 1-8.074 0c0-2.211 1.806-4.018 4.037-4.018 2.23 0 4.037 1.807 4.037 4.018zm-4.037 15.943a4.037 4.037 0 1 1 0-8.074 4.037 4.037 0 0 1 0 8.074zm4.037 7.862c0 2.211-1.806 4.044-4.037 4.044-2.23 0-4.037-1.833-4.037-4.044 0-2.211 1.806-4.044 4.037-4.044 2.23 0 4.037 1.839 4.037 4.044zm0 11.906a4.037 4.037 0 1 1-8.074 0c0-2.212 1.806-4.018 4.037-4.018 2.23 0 4.037 1.806 4.037 4.018zm0 11.899a4.037 4.037 0 1 1-8.074 0c0-2.211 1.806-4.018 4.037-4.018 2.23 0 4.037 1.813 4.037 4.018zm-11.899-47.61a4.037 4.037 0 1 1-8.074 0c0-2.211 1.806-4.018 4.037-4.018 2.23 0 4.037 1.807 4.037 4.018zm-4.037 15.943a4.037 4.037 0 1 1 0-8.074 4.037 4.037 0 0 1 0 8.074zm4.037 7.862c0 2.211-1.806 4.044-4.037 4.044-2.23 0-4.037-1.833-4.037-4.044 0-2.211 1.806-4.044 4.037-4.044 2.23 0 4.037 1.839 4.037 4.044zm0 23.805a4.037 4.037 0 1 1-8.074 0c0-2.211 1.806-4.018 4.037-4.018 2.23 0 4.037 1.813 4.037 4.018zm-11.9-47.61a4.037 4.037 0 1 1-8.074 0c0-2.211 1.807-4.018 4.038-4.018 2.23 0 4.037 1.807 4.037 4.018zm-4.036 15.943a4.037 4.037 0 1 1 0-8.074 4.037 4.037 0 0 1 0 8.074zm-11.9 0a4.037 4.037 0 1 1 0-8.074 4.037 4.037 0 0 1 0 8.074z"/>
    </defs>
    <g fill="none" fill-rule="evenodd" transform="translate(0 -464)">
        <use fill="url(#a)" xlink:href="#b"/>
        <use fill="#3ECF8E" xlink:href="#b"/>
    </g>
</svg>
